/* XPM */
static char *ed3f23769a114ff5e692bf5ee92e2373L3fSaH4PkMQgbrK4[] = {
/* columns rows colors chars-per-pixel */
"50 50 244 2 ",
"   c #02070A",
".  c #000213",
"X  c #000913",
"o  c #03061B",
"O  c #000A1D",
"+  c #0A0819",
"@  c #130C1B",
"#  c #00121E",
"$  c #0A151D",
"%  c #12141E",
"&  c #16181E",
"*  c #140A0D",
"=  c #2B161B",
"-  c #2D0C10",
";  c #0D0E22",
":  c #080E25",
">  c #120D24",
",  c #170D2B",
"<  c #0D1224",
"1  c #0E162A",
"2  c #0D1D2B",
"3  c #051827",
"4  c #121226",
"5  c #141B25",
"6  c #14152B",
"7  c #1C162D",
"8  c #151A2D",
"9  c #18192E",
"0  c #1C1823",
"q  c #180E33",
"w  c #1D1531",
"e  c #151B31",
"r  c #1B1B32",
"t  c #1B1F38",
"y  c #0D1C32",
"u  c #22142D",
"i  c #241825",
"p  c #211432",
"a  c #211E35",
"s  c #261A3B",
"d  c #1A222B",
"f  c #16222A",
"g  c #1D2234",
"h  c #162738",
"j  c #0A232D",
"k  c #212236",
"l  c #24253A",
"z  c #2A233C",
"x  c #292A3E",
"c  c #242B3A",
"v  c #2C2D33",
"b  c #713336",
"n  c #741B17",
"m  c #4B403A",
"M  c #1D1B40",
"N  c #291E41",
"B  c #2D2E42",
"V  c #2A2742",
"C  c #352A49",
"Z  c #2D3243",
"A  c #2B3748",
"S  c #313246",
"D  c #333449",
"F  c #393A4E",
"G  c #36394C",
"H  c #3C3D51",
"J  c #393653",
"K  c #2C3350",
"L  c #183442",
"P  c #413A49",
"I  c #423655",
"U  c #394455",
"Y  c #364C53",
"T  c #375461",
"R  c #3F6160",
"E  c #444559",
"W  c #454659",
"Q  c #49565E",
"!  c #524745",
"~  c #754C4B",
"^  c #7C635D",
"/  c #4C4D63",
"(  c #4A5665",
")  c #59596E",
"_  c #555569",
"`  c #5C5C73",
"'  c #545068",
"]  c #655F76",
"[  c #586474",
"{  c #53777E",
"}  c #4C6970",
"|  c #676679",
" . c #767A7B",
".. c #717474",
"X. c #91191B",
"o. c #8B2A2F",
"O. c #A0282D",
"+. c #AC323B",
"@. c #8B201A",
"#. c #C83C3C",
"$. c #BD443C",
"%. c #CB413E",
"&. c #A43848",
"*. c #B93B50",
"=. c #8D3446",
"-. c #D03B4B",
";. c #E3384A",
":. c #8C4244",
">. c #845A57",
",. c #9E444D",
"<. c #A5464B",
"1. c #B9484C",
"2. c #B04A53",
"3. c #867872",
"4. c #906D68",
"5. c #BB6569",
"6. c #AB6873",
"7. c #A77A7C",
"8. c #B76D7A",
"9. c #AB5A63",
"0. c #C84749",
"q. c #D64748",
"w. c #D75655",
"e. c #D14F55",
"r. c #F14755",
"t. c #D85963",
"y. c #CB586B",
"u. c #EB5467",
"i. c #D66868",
"p. c #C86A76",
"a. c #D86972",
"s. c #C7767A",
"d. c #DA7279",
"f. c #E36568",
"g. c #F7726E",
"h. c #EA6879",
"j. c #F66B77",
"k. c #E87A78",
"l. c #FB7777",
"z. c #F86C6D",
"x. c #EC655F",
"c. c #CE877F",
"v. c #FA847C",
"b. c #5D7682",
"n. c #6A6A82",
"m. c #667786",
"M. c #7E7F93",
"N. c #9C7F82",
"B. c #867D82",
"V. c #BB7A87",
"C. c #A57C84",
"Z. c #C87681",
"A. c #D27E88",
"S. c #F97983",
"D. c #E77884",
"F. c #768F92",
"G. c #9C8787",
"H. c #909195",
"J. c #AC8485",
"K. c #B98788",
"L. c #B79096",
"P. c #9AA09E",
"I. c #8B9AA9",
"U. c #8D93A5",
"Y. c #B59EA7",
"T. c #97A6B8",
"R. c #99BEBC",
"E. c #90A7AC",
"W. c #ABA9A8",
"Q. c #B6A8AE",
"!. c #BAAAB6",
"~. c #A6B7BB",
"^. c #B3B2B4",
"/. c #C98988",
"(. c #D39798",
"). c #CD8C92",
"_. c #EA8C86",
"`. c #FA8887",
"'. c #FF8F99",
"]. c #FA9799",
"[. c #EE9190",
"{. c #F1A89B",
"}. c #DD97A2",
"|. c #FA98A5",
" X c #C6B6BC",
".X c #CCA8AE",
"XX c #E3A6AB",
"oX c #FFA3A3",
"OX c #F9B7B6",
"+X c #F5B2B4",
"@X c #DBA196",
"#X c #97C0BC",
"$X c #FFC5BF",
"%X c #94B6CA",
"&X c #A8AEC5",
"*X c #A6B7C6",
"=X c #B6B9C5",
"-X c #ADB9D3",
";X c #CCB5C5",
":X c #D2BDCC",
">X c #F5BEC5",
",X c #95C6CC",
"<X c #ABC3C8",
"1X c #A8C6D6",
"2X c #A5D6DD",
"3X c #B6D6DC",
"4X c #B7CAD3",
"5X c #9DD8E2",
"6X c #A9DBE7",
"7X c #B6D9E3",
"8X c #B6E4EB",
"9X c #B9E6F4",
"0X c #ABE6EC",
"qX c #C5C8C8",
"wX c #DAC5CA",
"eX c #C4C8D3",
"rX c #C5D7DA",
"tX c #D6D5D7",
"yX c #D6CCD5",
"uX c #FFC9CE",
"iX c #FFD4CA",
"pX c #FFDEDA",
"aX c #FAD7D9",
"sX c #EACED2",
"dX c #D0E1DD",
"fX c #FCE3DA",
"gX c #FFE1CE",
"hX c #C6DBE6",
"jX c #DADDE2",
"kX c #CBDCF8",
"lX c #CBE5EB",
"zX c #DCE3E5",
"xX c #D5E5E8",
"cX c #C8E8F8",
"vX c #D6EAF6",
"bX c #DCF8F9",
"nX c #FFECEA",
"mX c #FCE8E6",
"MX c #FFF4E5",
"NX c #FFE9F2",
"BX c #E2FBFD",
"VX c #FEFAFD",
"CX c #E5E5E8",
"ZX c #EDDDE8",
/* pixels */
"9 9 9 9 9 9 9 9 9 9 9 8 9 9 8 6 f & $ > N q q N t M 2 2 g r w w w r 8 6 4 8 8 6 w 8 w 9 9 9 9 9 9 9 ",
"9 9 9 9 9 e 9 9 9 9 9 8 9 9 8 9 f f 0 7 N q q q : 3 3 < 5 6 , 7 7 8 6 6 6 8 6 9 9 9 9 9 9 9 9 9 9 9 ",
"9 9 9 9 9 9 9 9 9 9 9 9 9 9 9 8 $ f 5 4 w w 7 7 e w d d 9 6 w a 8 8 9 6 7 6 w 9 9 9 9 9 9 w 9 8 8 8 ",
"9 9 9 9 9 8 9 9 w 9 9 9 9 9 9 9 5 k 9 6 r a w a 7 0 i i % 4 6 4 9 9 8 6 8 6 8 8 9 9 9 9 8 9 9 w 9 e ",
"9 8 9 9 9 8 9 9 9 9 9 8 9 9 9 9 0 k e 1 e 8 $ @ = - = = & i g e e 9 9 9 9 6 6 4 9 9 9 9 9 9 9 8 8 9 ",
"9 8 e 9 e 8 9 9 8 9 e 8 9 9 9 9 > 6 8 e h f & = = - - - * @ h 3 8 9 9 9 9 6 6 6 8 9 9 9 9 9 9 9 9 9 ",
"9 9 8 9 9 9 w 9 9 9 9 9 9 9 9 9 w r e h c f v ! ~ ~ ~ ~ = d A h 1 6 8 9 9 9 9 9 e 9 9 9 9 9 9 8 9 9 ",
"w 9 9 9 9 9 9 9 9 9 9 9 9 9 9 w p 4 : . X     m ^ ~ ^ b -   X X < < 6 9 9 9 r 9 8 9 8 w 9 9 8 e 9 w ",
"9 9 9 9 9 9 9 9 9 8 9 9 9 9 9 e q : ` m.I.F. .3.^ >.>.>.L.F.F.F.` . D ; 4 e r 9 9 9 8 9 8 9 9 9 9 9 ",
"9 9 9 9 9 9 9 9 9 e 9 9 9 9 9 9 V o I.vX8XlXdXH.^ 4.4.G.tXxXbXBXI.+ t 4 l 4 < r 9 9 w 9 e 9 9 9 9 9 ",
"9 9 8 8 9 9 e 9 9 9 9 9 9 9 9 9 V . U.lX4XxXBXP.^ 3.3.G.yXjX7X3XI.+ 9 6 c 4 : k 9 9 8 9 8 9 9 9 9 9 ",
"9 9 9 9 w 6 8 9 9 9 9 9 9 9 9 9 p . U ( m.R.-X=XeXqXqXqXjX3XF.( U o l 6 w 9 r r 9 9 w 8 9 9 9 9 9 9 ",
"9 9 9 9 9 9 9 9 9 9 9 9 9 9 9 9 9 5 3 . U T.%XkXxXxXxXrX7X<XT o 6 o V 6 6 a r 8 9 9 9 8 9 8 w 9 9 9 ",
"9 9 9 9 9 9 9 9 8 e 9 9 8 e 9 6 0 & 5 < J %X-X1X3X3X8XlXhXhX} : c > r e 9 t 4 6 9 9 8 e 9 9 9 9 8 8 ",
"9 e 8 9 9 8 9 9 9 9 9 9 6 9 9 8 & $ d r J -X%X%X,X,X2X2X3XcX` : B 8 9 e r 9 > 9 9 9 9 9 e 8 e w 9 9 ",
"9 9 9 9 9 e 9 9 9 9 9 9 w 9 9 9 5 f 1 . K %X%X%X%X,X0X0X6XcX} . < 7 r 6 < 9 w a 7 9 8 8 8 9 9 e 9 9 ",
"9 9 9 9 e 8 9 e 6 6 9 8 9 9 > 4 c . [ &X%XkX-XcX9X6X5X5X9X6X5X1XH.. x g g 6 s u u 7 5 5 2 e e r 9 9 ",
"9 9 9 9 8 8 8 8 8 9 w 8 4 a V Z . # m.%X-XbXcX9X9X9X8X6X5X1X9XBXH.* % . e y s w u 7 5 2 2 2 e w w 9 ",
"9 9 8 8 8 9 9 9 r 9 r 6 > ; > . ( ) E.1X1X9X7X7X7XkXjXhX3X7X6X3X^...} # h 3 M w u 9 f 2 2 y w w e 8 ",
"9 9 8 e 9 9 9 9 1 < 4 l c V l . T.R.4XcXhX4X7XhXeXvXVXVXzXzXrX4XzXdX4Xj j y M 6 7 0 5 2 2 8 w p w 9 ",
"e 9 9 9 9 9 9 9 l r 6 9 o o 9 . I.~.4XtXZX:XyX:X XmXVXVXsXfXaXwXtXzXE.  3 O 2 r 7 0 8 5 2 9 w p w 9 ",
"6 9 9 9 9 9 9 9 ; r r g : S U.U.^.tX XN.V.Z.V.V.7.wXnXpX7.8.s.8..XCXCX#X,XT : 6 7 9 5 f 2 9 w p 9 9 ",
"9 6 e 9 7 9 9 9 6 t 9 9 o S &X=XCXmXXX=.*.*.*.*.n XXMXpX=.o.+.&.XXCXCXvX7XY . B 7 0 8 5 8 9 r w w 9 ",
"9 e 9 9 9 7 9 7 7 9 ; e : U &XQ. XOX|.e.D.u.-.u.1.].OX$Xd.'.h.+.(.$X XzXlX} . a 7 u 9 f 8 8 r w w 9 ",
"r 6 9 4 6 r 7 9 p > 9 l : G T.:X9.&.a.'.l.w.#.x.0.0.O.i.iXfX_.<.<.:.J.jXhX_ . a u 7 9 5 8 8 w 6 9 9 ",
"r : 6 a a p 6 a 6 9 g 4 . U T.!.p.*.h.`.l.w.%.%.w.0.$.v.fXfXi.n t.&.V.aXtX_ . a u i 9 8 2 y e e e 9 ",
"8 4 8 9 7 , 7 u 4 9 g 9 o Y *X!.Z.0.e.i.u.g.v.v.g.v.k.v.{.{.$XgX`.&.Z.aXyX' . z u u 7 5 8 y e e 9 9 ",
"6 t w > > > 7 > , + 4 9 o U T.!.p.*.0.0.w.v.v.v.`.v.v.c.c./.gXMX].O.s.aXyXQ . a u u 9 9 2 8 e e 8 9 ",
"6 a u z B u z s I x x l O A T.=X5.0.e.w.w.g.v.x.v.k.k.[.{.c.gXgXoX@.c.aXtXQ . k u u 9 0 9 8 9 9 9 9 ",
"9 4 , ' ) z P ' | | _ B O U *X.Xp.0.w.0.%.w.%.%.#.-.0.0.<.:.iXMXoX@.c.sXtX(   h 9 u 7 9 8 9 9 9 9 9 ",
"9 6 @ ' ' C ' ] I I H h < ( -XQ.h.;.q.q.$.%.%.%.;.r.;.;.y.,.uXnXoX@.c.tXdXR X h 9 u 7 9 9 9 w w 9 9 ",
"6 c @ z C z ' ' . . ; V A m.-X;Xh.-.e.w.x.w.q.;.;.r.r.u.h.,.uXnX{.@.c.wXrXR   h 9 9 7 u 7 9 w w 9 9 ",
"6 x . E | k E | ' x 4 F [ | hX:X).2.D.S.j.l.z.#.0.i.k.a./.9.>XNX+Xo.}.ZXtXR # j y e q s p w w 9 9 9 ",
"9 9 . Q | g w E ` | / B 7 ) eXY.V.5.k.t.e.u.l.x.i.[.{.@X(.(.OXuX|.Z.}.sXtXQ   L y e p p p p w 9 9 9 ",
"g 6 + W | r . ; c W | H . ` -X;X6.d.S.w.q.;.l.f.5.{.gXMXMXMXL.K.A.).L.sXzX} X h e e p p p 7 9 8 8 w ",
"9 g o I ) x k 9 . 9 ) W @ n.&X X6.[.D.0.-.e.S.h.i.$XgXfXmXnXK.V.A.).L.:XeXQ # h e e q s w w w 8 8 w ",
"4 k . Q | S ) / z W n.F . | M.] N.@X/.5.d.d.S.w.i.`.]._.].].y.D.}.:X XB. .g 2 2 e w p p w w 9 8 8 8 ",
"r 6 . _ | k / ) | ( _ l . H / Q W.qX^.K.(.s.p.<.<.p.c.c._.y.y.p.XXNXyX! U 3 : f w w p p w 9 e 2 e 9 ",
"l 4 6 S B 6 r Z E k k 6 9 9 z E F.F.H.G.G.N.C.J.7.L.J.J.K.6.V.K.Y.!.P.v v c f g w w p u w e 2 8 6 9 ",
"9 ; S + . l + 4 . < k ; a ; ;     # { E.=X^.Y.Q.W.^.W.W.^.Q.=XQ.n.* * $   d 1 4 7 w u w 9 8 e 2 e 9 ",
"6 6 0 x D l l k k x D B k k x Z K : m.&X&X=X&X&X~.R.<X~.R.R.#X*X .% f v c Z 4 7 7 p u 9 9 9 2 8 9 9 ",
"6 9 9 S F D F G 9 Z F H F D F H ' N n.n.' n.n.n.| b.{ { } { { { } v Y S 5 d 4 a 7 7 7 9 9 9 2 8 8 9 ",
"6 9 9 S F G W E 6 c F E H H H J J N C , : N N N V s V N h V V l G Z ( Z O 9 9 r 7 7 9 9 9 8 e 9 9 9 ",
"5 9 6 l x l S S @ r x B x c l a C J I N N I C C J C C C J I I J x h A r % k 7 7 9 9 9 9 9 8 9 9 9 9 ",
"6 9 4 9 9 4 d 9 4 5 9 9 4 6 6 4 + w a 9 g e : 1 6 6 q 1 e t t e g ; 8 8 9 k 7 6 8 5 8 5 8 5 9 9 9 9 ",
"7 g 6 9 6 4 r 9 6 9 9 4 4 8 9 7 7 0 6 8 e 1 3 f 8 6 6 1 e 6 1 1 e 1 , w p 6 6 d 2 f 2 8 8 9 u u 9 9 ",
"6 g 6 9 9 4 r 9 9 9 9 8 9 9 9 7 i i & 5 5 3 f g 9 9 r w 8 4 6 9 w t w w a 4 6 e 8 2 2 f f 9 7 u 9 9 ",
"4 k 9 9 9 6 r 9 5 9 9 9 9 r 9 0 % i 0 0 $ 5 g $ 4 7 7 7 7 0 9 r w l , 4 r 7 9 1 f 8 8 8 9 9 u 7 9 9 ",
"9 7 7 9 7 7 9 7 9 9 7 9 w 9 9 9 7 9 9 9 0 9 9 f 9 9 9 9 9 9 9 9 9 9 e w 9 w 9 8 9 8 8 8 e 8 9 9 7 w ",
"9 9 9 7 9 9 9 9 r 7 9 7 7 9 7 9 9 9 9 9 9 9 9 9 9 9 9 9 9 9 9 9 9 9 9 9 9 9 8 8 9 w 9 9 9 9 9 9 9 9 "
};
