/* XPM */
static char *_3d8e53e67064726aea9306d854f9060Jf3dnPQeTjyRlLpK[] = {
/* columns rows colors chars-per-pixel */
"50 50 244 2 ",
"   c black",
".  c #190000",
"X  c #000017",
"o  c #0B1318",
"O  c #230100",
"+  c #2D0000",
"@  c #350000",
"#  c #3D0000",
"$  c #2E140D",
"%  c #331517",
"&  c #003300",
"*  c #15350E",
"=  c #2C2812",
"-  c #383818",
";  c #000629",
":  c #141226",
">  c #001637",
",  c #2D132F",
"<  c #032529",
"1  c #172828",
"2  c #002A35",
"3  c #003334",
"4  c #0A3336",
"5  c #083636",
"6  c #14383A",
"7  c #2B2C2D",
"8  c #372929",
"9  c #430000",
"0  c #4C0000",
"q  c #530000",
"w  c #5A0000",
"e  c #4E1704",
"r  c #4C0917",
"t  c #560418",
"y  c #45131C",
"u  c #5A121C",
"i  c #660002",
"p  c #730006",
"a  c #660418",
"s  c #6B021C",
"d  c #730015",
"f  c #74001C",
"g  c #5A2A00",
"h  c #6E2902",
"j  c #4C1822",
"k  c #5B1B23",
"l  c #4E0F31",
"z  c #690524",
"x  c #691626",
"c  c #6A122A",
"v  c #761627",
"b  c #512E2D",
"n  c #4D3A34",
"m  c #6B2C2C",
"M  c #004805",
"N  c #07570C",
"B  c #114F11",
"V  c #075915",
"C  c #155717",
"Z  c #2F481C",
"A  c #1B6713",
"S  c #094725",
"D  c #144C27",
"F  c #2D4C32",
"G  c #724200",
"H  c #484325",
"J  c #6C4E2B",
"K  c #0D0D47",
"L  c #33005E",
"P  c #0A3051",
"I  c #2F304C",
"U  c #10006F",
"Y  c #310074",
"T  c #462949",
"R  c #693249",
"E  c #570464",
"W  c #3C4545",
"Q  c #214163",
"!  c #524E4E",
"~  c #665652",
"^  c #75585B",
"/  c #4D6249",
"(  c #515B6B",
")  c #6C5F60",
"_  c #67676A",
"`  c #7A696A",
"'  c #737567",
"]  c #777677",
"[  c #830000",
"{  c #8B1200",
"}  c #85001F",
"|  c #960010",
" . c #883C0F",
".. c #953300",
"X. c #A33C00",
"o. c #8A0026",
"O. c #95062A",
"+. c #931225",
"@. c #8F1731",
"#. c #A80432",
"$. c #B30D37",
"%. c #CF002C",
"&. c #96460A",
"*. c #9C5705",
"=. c #A75800",
"-. c #AC500C",
";. c #BB5803",
":. c #9B7100",
">. c #AD7009",
",. c #8D5030",
"<. c #A95B23",
"1. c #B05C33",
"2. c #947535",
"3. c #B26834",
"4. c #C55D00",
"5. c #C45E11",
"6. c #C46B00",
"7. c #D16F06",
"8. c #E87400",
"9. c #EA7A01",
"0. c #EC7C0A",
"q. c #D26E24",
"w. c #C46B37",
"e. c #D77839",
"r. c #E27C38",
"t. c #A32941",
"y. c #CA1A47",
"u. c #B46B44",
"i. c #AF734B",
"p. c #B77659",
"a. c #A95574",
"s. c #8E736C",
"d. c #A77C67",
"f. c #B27C6B",
"g. c #D17947",
"h. c #E0775A",
"j. c #0AA20F",
"k. c #009B22",
"l. c #00A524",
"z. c #418E41",
"x. c #A5801A",
"c. c #AE872B",
"v. c #D19C1A",
"b. c #EC810F",
"n. c #F48506",
"m. c #F08919",
"M. c #E88D22",
"N. c #EE9B26",
"B. c #F69824",
"V. c #F8A227",
"C. c #E7B22E",
"Z. c #F4AD33",
"A. c #F9B436",
"S. c #FDCF36",
"D. c #B18D4D",
"F. c #B08974",
"G. c #DB864F",
"H. c #CD8151",
"J. c #D48455",
"K. c #E88C52",
"L. c #F9945C",
"P. c #FFA05A",
"I. c #D18669",
"U. c #F79966",
"Y. c #FE9C64",
"T. c #E99E78",
"R. c #FCA26D",
"E. c #FFD247",
"W. c #FFDD51",
"Q. c #4F0993",
"!. c #5E1390",
"~. c #740AAB",
"^. c #714E8A",
"/. c #7C7981",
"(. c #7D77A0",
"). c #A07A9D",
"_. c #8266AB",
"`. c #DF66A8",
"'. c #8700DE",
"]. c #9510F0",
"[. c #AC1DFF",
"{. c #995CDA",
"}. c #7F8389",
"|. c #8A8989",
" X c #878B93",
".X c #968F90",
"XX c #949493",
"oX c #97989A",
"OX c #B09B96",
"+X c #9FA091",
"@X c #AAA19C",
"#X c #8D8DA6",
"$X c #9698A5",
"%X c #A595BD",
"&X c #9FA6A8",
"*X c #A4A2A2",
"=X c #AAA5A5",
"-X c #A6A9A7",
";X c #ACACAC",
":X c #B6ACA9",
">X c #B2B2AD",
",X c #AAA9B6",
"<X c #AEB3B9",
"1X c #B4B4B4",
"2X c #BAB7B6",
"3X c #BBBBBB",
"4X c #E1A283",
"5X c #C7B0AD",
"6X c #C8B7B4",
"7X c #D7C1BA",
"8X c #E1C4B8",
"9X c #B6AFCE",
"0X c #B8B9C2",
"qX c #C9BFD0",
"wX c #CAA4F3",
"eX c #BEC4C4",
"rX c #C3C4C4",
"tX c #C5C7C7",
"yX c #CCCDCC",
"uX c #CDCCCD",
"iX c #CDD0D1",
"pX c #D2D4D5",
"aX c #DDDCDD",
"sX c #E0CFCA",
"dX c #E2DDDC",
"fX c #EDE1DD",
"gX c #DDDFE1",
"hX c #D5CFF4",
"jX c #E6DCF0",
"kX c #DDE1E1",
"lX c #DEE4F2",
"zX c #E5E5E5",
"xX c #EAE6E5",
"cX c #E4E8E8",
"vX c #ECECEC",
"bX c #F0EFEF",
"nX c #F5FAEF",
"mX c #EDEFF0",
"MX c #EEF1F2",
"NX c #F4F4F4",
"BX c #F4F7F7",
"VX c #F8F7F7",
"CX c #F6F9F9",
"ZX c #FDFDFD",
/* pixels */
"ZXZXvXvXVXZXVXzXNXZXVXvXvXZXZXvXvXVXZXNXzXVXZXVXvXvXZXZX*X1XZXZXNXzXVXZXVXcXvXZXZXvXvXVXZXNXzXNXZXVX",
"ZXZXvXvXVXZXNXzXNXZXVXvXvXZXZXvXvXVXZXNXzXNXZXVXvXvXZXZX*X  tXZXvXvXNXZXVXvXvXZXZXvXvXZXZXvXvXVXZXNX",
"vXvXVXZXMXvXVXZXVXvXNXZXVXvXvXVXZXMXvXVXZXVXvXNXZXVXvXVX=X@ b dXZXVXNXvXNXZXVXvXvXZXVXvXvXVXZXNXvXNX",
"vXvXVXZXvXzXVXZXVXzXvXZXZXvXcXZXZXMXzXNXZXNXzXNXZXZXzXNX=X@ s ^ vXZXNXzXvXZXZXvXvXZXZXvXcXVXZXNXzXNX",
"ZXZXNXvXVXZXVXvXNXVXVXvXNXZXVXNXvXVXZXNXvXNXZXVXvXNXVXZX=XO m i ^ zXVXZXVXvXNXZXVXMXvXVXZXNXvXNXZXNX",
"ZXZXvXzXVXZXNXzXNXZXVXcXvXZXZXvXvXVXZXNXzXNXZXVXzXvXZXZX=X+ x v p ^ VXZXVXzXvXZXZXvXcXVXZXvXzXVXZXNX",
"vXMXVXVXNXvXNXVXVXvXNXZXVXvXvXVXVXNXvXNXVXNXvXNXVXVXvXCX*X@ k s v p *XVXMXVXCXvXvXVXZXNXvXVXVXNXvXVX",
"vXxXZXZXMXzXVXZXVXzXvXZXZXcXcXZXZXMXzXVXZXVXzXvXZXZXzXNX=X+ k z t s q +XVXZXVXcXvXZXZXvXzXZXZXVXzXNX",
"VXVXNXMXVXZXNXvXNXVXNXNXMXVXVXNXMXVXVXNXvXNXVXVXNXNXVXZX*X# r e :.J !.E .XdXVXNXBXmXVXZXZXNXvXNXVXNX",
"ZXZXvXzXVXZXNXzXNXZXZXzXvXZXZXvXzXVXZXNXzXVXZXVXzXvXZXZX=X  g a.I.>.'.[.'.!.yXZXZXcXpX2X3XvXzXVXZXVX",
"NXNXVXVXNXmXVXVXNXNXNXNXVXNXMXVXVXNXMXVXVXVXbXNXVXVXNXaX] U >.`.~.7.~.].].~.R 5X5Xs.s # |.MXVXNXMXNX",
"zXzXZXZXvXzXNXZXVXzXvXZXZXxXzXZXZXvXzXVXZXNXzXMXZXVXMXoXY ~.R h.a.=.T E e { #.{ [ p ` tXNXVXZXNXzXNX",
"VXNXNXNXNXVXNXMXNXVXNXNXNXNXVXNXNXVXVXNXMXNXVXVXNXMXZX;XQ.Q.T G h t q w t j - & ) yXmXZXVXNXNXNXVXNX",
"ZXZXvXzXVXZXNXzXNXZXZXzXvXZXZXvXzXVXZXNXzXNXZXVXdXxXZX=XK l 0 z h m u.,.1.Z N A z.tXmXCXZXvXzXNXZXNX",
"VXVXNXNXNXNXNXVXNXNXNXNXNXNXNXVXNXNXNXNXNXNXNXNXCXZX0X% # e 8 - k.D.L.^ d.H.Z N j.C zXCXNXNXNXNXNXNX",
"zXzXZXZXMXzXNXZXVXzXvXZXZXcXzXZXZXvXzXVXZXVXvXCXzXXXO O Z B N * l.D.K.<XlXs.J.H D M ] vXzXBXZXNXzXNX",
"NXNXVXNXNXNXNXVXVXNXNXVXVXNXNXNXVXNXNXNXVXVXyX` % . = C N N C = l.D.Y.F.hX#XP.i.> D D aXBXNXVXNXNXNX",
"ZXZXvXzXNXZXNXzXMXZXVXzXvXZXZXvXzXVXZXNXiX=X] s.j - C C C S 4 = l.D.Y.G.5XI.U.g.< F & =XZXvXzXVXZXCX",
"VXVXNXNXVXVXNXMXNXVXVXNXmXVXVXMXMXVXVXVXzXzXZXtX& V C D 4 4 5 : V J U.Y.L.U.R.J.< S / aXZXNXMXNXVXNX",
"zXzXZXZXvXzXVXZXVXzXvXZXZXzXvXZXZXvXzXVXZXCXzX! & C N 5 4 4 5 4 * * K.R.U.J.J.H 2 1 zXNXzXVXZXNXzXNX",
"NXMXVXVXNXvXVXVXVXvXNXVXVXNXvXVXVXNXmXVXNXVXcXF 2 D S 4 3 3 < $ o = -.g.L.K.,.< o -XZXbXbXBXVXNXmXNX",
"ZXZXvXzXVXZXNXzXmXZXZXcXvXZXZXvXzXZXZXNXzXVXZXW < 6 4 4 < a #.t % i d.dXF.m < 1 1XNXcXZXZXvXzXVXZXVX",
"VXVXNXvXVXZXNXvXNXZXVXvXMXVXVXNXvXVXVXNXvXVXvXW 2 6 P 3 r f #.r e f.bXZX;X  XXaXZXvXvXVXZXNXvXVXCXNX",
"vXvXZXZXvXzXVXZXVXzXbXZXVXvXvXZXZXMXzXVXZXVXaX7 3 6 D 1 a f s y   3XZXcXtX-XZXmXvXZXZXvXzXVXZXNXzXNX",
"vXvXVXZXNXvXVXZXVXvXvXZXVXvXvXVXZXNXvXNXZXVXbX]   1   o f t x q 7 cXCXvXCXZXVXvXvXVXZXmXvXVXVXNXvXNX",
"ZXZXvXzXVXZXNXzXNXZXVXcXvXZXZXvXcXVXZXNXzXNXZXNX*XtX1Xb f x r d b zXCXZXNXzXvXZXZXvXxXZXZXbXcXVXZXVX",
"ZXZXNXvXVXZXNXvXNXZXVXvXNXZXZXvXvXVXZXMXvXVXZXZXMXzX,Xb z I : u w ' NXZXNXvXMXZXZXvXvXVXZXNXvXVXZXVX",
"vXcXVXZXNXzXNXZXVXzXNXZXVXvXvXZXZXvXvXCXcXzX1X.X` 9 Y L # ( ! O x 0 ` vXNXZXVXxXvXZXZXvXvXVXZXbXzXNX",
"vXnXCXZXNXzXVXZXVXzXMXZXVXbXzXvXZXNXcX6X#.t.} 0 0 p l XX7XZX*X. j v w ;XZXZXVXvXvXZXZXvXvXBXZXNXcXNX",
"BXkXvX|.gXZXVXzXNXZXVXvXvXZXVX1X/.-X_ f o.f +.y.@.o.n VXZXMX1X+ y r v @ ;XNXvXZXZXvXvXZXZXmXvXZXZXNX",
"BXJ XX2.2.;XNXMXVXZXVXvXNXZXZXzX; : q c x s t o.@.$.$.|.eXvXmX8 9 % u o.o.pXNXZXVXvXcXZXZXVXpXaXZXVX",
"0XC.x.D.S.x.F.qX/.] XX] $XgXbXZX X: R m f f f s a s #.| w :XNX=X@ % f y.{ 2XZXvXvXZXZXvXbXeX,X$X,XVX",
"&XC.W.S.E.E.S.v.1 ; Q c.v.F.<XCXyX! K , w I b d v z t x O.#.s.pX7X*.,.,.G.Y.xXNXxXZXZXbXkX XCXZX$XiX",
"^ C.Z.S.A.Z.A.A., > X c.S.C.,XCXvXMX1X( P I u I T k o.s x $.%.@.-X6X5.5.I.L.K.fXZXvXvXZXzX<XZXZXjX%X",
"c.S.N.9.8.9.7.&.)..X}.<.8.b.>XMXmXZXZX] K Q P P P , R f f o.@.O.9 rX7X5.f.6XY.U.fXVXxXZXVX<XZXhX{.9X",
"3.A.Z.V.N.m.=.9X%X_ kX3.n.M./ _ =X1X;X.Xb o o j ,.J 2 T c b v x 9 ` 2Xs...4XOXr.Y.4XT.5X*X,XZXxX^.%X",
"*.n.0.M.N.n.<.3XkXyXaX3.n.7..   , o 1 7 O % h 5.e.K.w.I Q s q @ F 8 % h <.4.h n 5.6.;.g . 1XZXnXyX9X",
"*.Z.N.V.N.m.&.iXpX|.kXi.n.7.s.>XdXNXvXd... .1.e.g.L.L.X.X ~ oXiXvXjXMXsXg.u.p.dX:X@X=XvXkX_.wXwXZX$X",
"2.V.V.N.9.b.6.^.%XoX9X1.n.7.1XZXvXVXF.X.1.3.e.g.r.q.w.OX;XaXZXZXBXzXVXZXMXdXxXZXZXNXMXZXZX<X#X{.9X*X",
"6XJ >.N.m.0.m.6.I _ K <.B.;.*XZXbXF.X.1.w.r.q.4.w.p.qXNXZXVXNXvXNXVXNXbXNXCXCXMXMXNXVXMXMXZXvX(.$XvX",
") &.=.8.9.8.9.9.$ ; ; &.=.] dXNX` ..-.4.4.3.f.5XfXZXvXcXZXZXvXzXVXZXNXkXMXZXVXzXxXZXZXvXzXNXZX<X XNX",
"nXOXd.F.F.d.F.d.' _ ] 2X2XZXvX^ 0 + s.6X6XdXCXZXVXNXNXVXNXNXVXVXVXNXNXVXNXNXVXVXVXVXNXVXNXNXNXVXBXVX",
"ZXZXcXlXmXCXMXkXBXZXZXvXZXvX_ # ! tXZXVXbXVXZXVXzXvXZXZXvXzXVXZXmXzXVXZXVXzXvXZXZXzXzXZXZXvXkXVXZXVX",
"NXNXNXNXNXBXNXNXNXNXNXNXpXn # ! kXZXNXMXVXbXVXNXNXNXNXNXNXNXNXNXNXNXNXNXNXNXNXNXNXNXVXNXVXNXNXNXNXNX",
"cXzXZXZXvXzXVXZXVXzXvXZXoX) =XNXZXvXzXVXZXNXzXMXZXZXzXcXZXZXvXzXBXZXNXzXNXZXVXzXvXZXZXvXzXVXZXNXzXMX",
"NXNXNXVXNXNXNXVXNXNXNXVXCXCXCXVXNXVXNXNXVXNXNXNXVXNXNXNXVXVXNXNXVXVXNXbXNXVXVXNXNXVXVXNXNXNXVXVXNXNX",
"ZXZXvXzXVXZXNXzXmXZXVXzXvXZXZXvXzXVXZXNXzXMXZXVXzXvXZXZXcXzXZXZXbXzXVXZXBXzXvXZXZXzXzXZXZXvXzXNXZXVX",
"VXVXNXMXVXCXNXvXVXVXVXmXNXVXVXNXMXVXVXNXbXNXVXNXNXNXVXVXNXMXVXVXNXvXVXBXNXNXNXBXVXNXNXVXVXNXMXNXVXNX",
"cXzXZXZXNXzXVXZXVXzXvXZXZXvXzXZXZXmXzXVXZXNXzXvXZXZXcXxXZXZXvXzXVXZXNXzXMXZXZXzXvXZXZXvXzXVXZXVXzXNX",
"bXNXVXVXNXvXNXVXVXMXNXBXVXvXNXVXVXNXvXVXZXVXvXNXVXBXbXNXVXVXNXNXVXZXNXvXNXVXVXNXvXVXVXNXMXVXVXNXvXNX"
};
