/* XPM */
static char *_4ef4ba09fde431c9b0bde6a22e5ac2csKTFMYu6ubmeeKKE[] = {
/* columns rows colors chars-per-pixel */
"50 50 6 1 ",
"  c None",
". c black",
"X c #3E2723",
"o c #64DD17",
"O c #76FF03",
"+ c #A1887F",
/* pixels */
"                                                  ",
"                                                  ",
"                                                  ",
"                                                  ",
"                                                  ",
"                                                  ",
"               .....oo............                ",
"             ...OOOOooOOOOOOOOOOO...              ",
"            ...OOOoOOOOOOoOOOoOOOO...             ",
"           ..OOOOOOOOooOOOOOOOOOooOO..            ",
"          .OOOOOOooOOooOOOoOOOOOooOOO..           ",
"         ..OOOOOOooOOOOOOOOOOOOOOOOOOO..          ",
"         ....OOOOOOOOOOOOOOOOoOOOOOO....          ",
"        .XXX...OOOOOOOOOooOOOOOOOOO..XX..         ",
"      ..XXXXXX...OOOoOOOooOOOOoOO..XXXXX.         ",
"      .XXXXXXXXX.................XXXXXXXX.        ",
"     ..XXXXXXXXXXXXXXXXXXXXXXXXXXXX+++XXX..       ",
"     .XXXXXXXXXXXXXXXXXXXXXXXXXXXXX+++XXXX.       ",
"    .X..XXXXXXXXXXXXXXXXXXXXXXXXXXX++++XXX.       ",
"    ...XXXXXXXXXXXXXXXXXXXXXXXXXXXX++++XXXX.      ",
"    ..XXXXXXXXXXXXXXXXXXXXXXXXXXXXX+++++XXX.      ",
"    ...XXXXXXXXXXXXXXXXXXXXXXXXXXXX+++++XXX.      ",
"    .X..XXXXXXXXXXXXXXXXXXXXXXXXXXX+++++XXX.      ",
"    .XXXXXXXXXXXXXXXXXXXXXXXXXXXXXXX++++XXXX.     ",
"    .XXXXXXXXXXXXXXXXXXXXXXXXXXXXXXX++++XXXX.     ",
"    .XXXXXXXXXXXXXXXXXXXXXXXXXXXXXXX++++XXXX.     ",
"    .XXXXXXXXXXXXXXXXXXXXXXXXXXXXXXX++XXXXXX.     ",
"    .XXXXXXXXXXXXXXXXXXXXXXXXXXXXXXX++XXXXXX.     ",
"    .XXXXXXXXXXXXXXXXXXXXXXXXXXXXXX++XXXXXX.      ",
"    ..XXXXXXXXXXXXXXXXXXXXXXXXXXXXX+XXXXXXX.      ",
"     .XXXXXXXXXXXXXXXXXXXXXXXXXXXX++XXXXXXX.      ",
"     ..XXXXXXXXXXXXXXXXXXXXXXXXXXX+XXXXXXX..      ",
"      .XXXXXXXXXXXXXXXXXXXXXXXXXXXXXXXXXXX.       ",
"       .XXXXXXXXXXXXXXXXXXXXXXXXXXXXXXXXX.        ",
"        ..XXXXXXXXXXXXXXXXXXXXXXXXXXXXXX..        ",
"         ..XXXXXXXXXXXXXXXXXXXXXXXXXXX..          ",
"          ...XXXXXXXXXXXXXXXXXXXXXXXX..           ",
"          .....XXXXXXXXXXXXXXXXXXX...             ",
"         .......XXXXXXXXXXXXXXX......             ",
"        ...............................           ",
"       .........                 .......          ",
"      ......                      .......         ",
"      ...                           .....         ",
"                                       ..         ",
"                                                  ",
"                                                  ",
"                                                  ",
"                                                  ",
"                                                  ",
"                                                  "
};
