/* XPM */
static char *dac6a7266a164987b93730e6d2b13de4ZlGhZDGu3JOaQUcA[] = {
/* columns rows colors chars-per-pixel */
"50 50 195 2 ",
"   c #010101",
".  c #050B05",
"X  c #0C020C",
"o  c #0B0B0B",
"O  c #0A0C07",
"+  c #021D01",
"@  c #0D120C",
"#  c #0C1E0C",
"$  c #081B07",
"%  c #11130F",
"&  c #110010",
"*  c #1D001D",
"=  c #150C16",
"-  c #131313",
";  c #141B15",
":  c #1C1C1C",
">  c #181918",
",  c #230001",
"<  c #261A0E",
"1  c #0C220D",
"2  c #072408",
"3  c #003201",
"4  c #152314",
"5  c #192419",
"6  c #1E2A1F",
"7  c #172717",
"8  c #153415",
"9  c #35281F",
"0  c #20311F",
"q  c #1F0020",
"w  c #1E1C21",
"e  c #250024",
"r  c #280027",
"t  c #270128",
"y  c #2A002A",
"u  c #30012F",
"i  c #211B21",
"p  c #330333",
"a  c #380036",
"s  c #3C133C",
"d  c #252525",
"f  c #262A26",
"g  c #262628",
"h  c #2B262A",
"j  c #262B2B",
"k  c #2A2B2B",
"l  c #282627",
"z  c #223C23",
"x  c #2C342C",
"c  c #302430",
"v  c #343433",
"b  c #363A36",
"n  c #3E3E3E",
"m  c #383638",
"M  c #422913",
"N  c #413E3D",
"B  c #4D3F36",
"V  c #004C01",
"C  c #015402",
"Z  c #006600",
"A  c #264D26",
"S  c #2A5B29",
"D  c #265124",
"F  c #3F413F",
"G  c #246325",
"H  c #3E693D",
"J  c #316330",
"K  c #3C763C",
"L  c #5C422B",
"P  c #41403E",
"I  c #5A4332",
"U  c #62452F",
"Y  c #664C38",
"T  c #3E3E40",
"R  c #420143",
"E  c #4B194A",
"W  c #452F44",
"Q  c #403E41",
"!  c #453446",
"~  c #414141",
"^  c #4D4D4D",
"/  c #4A4548",
"(  c #504E4F",
")  c #545454",
"_  c #5A5A5A",
"`  c #49534A",
"'  c #655F5D",
"]  c #645365",
"[  c #656564",
"{  c #6A6A6A",
"}  c #6F746E",
"|  c #737474",
" . c #7D7D7D",
".. c #747973",
"X. c #0A8A0B",
"o. c #029501",
"O. c #019901",
"+. c #089A09",
"@. c #198B19",
"#. c #01B902",
"$. c #0DB30C",
"%. c #12BD13",
"&. c #16B117",
"*. c #218A22",
"=. c #219324",
"-. c #26AE26",
";. c #23BC24",
":. c #03CC03",
">. c #01D501",
",. c #00DB00",
"<. c #08DE0A",
"1. c #14CE14",
"2. c #13C412",
"3. c #14D114",
"4. c #18D717",
"5. c #00E500",
"6. c #01ED01",
"7. c #07E90B",
"8. c #11ED0F",
"9. c #01F201",
"0. c #01FE02",
"q. c #07FD08",
"w. c #09FE0A",
"e. c #11FB10",
"r. c #18FF19",
"t. c #17F518",
"y. c #29DE2A",
"u. c #32DE32",
"i. c #26C729",
"p. c #1DEE21",
"a. c #21EB23",
"s. c #30EA2F",
"d. c #25F626",
"f. c #20FF21",
"g. c #2EF92D",
"h. c #33EB33",
"j. c #32FD34",
"k. c #38FE37",
"l. c #50934E",
"z. c #548A56",
"x. c #509552",
"c. c #49A14D",
"v. c #5CB35C",
"b. c #74B875",
"n. c #3FFD41",
"m. c #4CCF4D",
"M. c #4DD650",
"N. c #42F441",
"B. c #4AFA4B",
"V. c #50FA4F",
"C. c #4EFA50",
"Z. c #52FC53",
"A. c #5CFD5C",
"S. c #5DF35C",
"D. c #77C577",
"F. c #6CDA6A",
"G. c #66EC68",
"H. c #63FB64",
"J. c #66F766",
"K. c #74FC74",
"L. c #848484",
"P. c #8A8B8B",
"I. c #959595",
"U. c #9C9C9C",
"Y. c #A3A3A3",
"T. c #ACACAC",
"R. c #ADBEAB",
"E. c #B3B3B3",
"W. c #B3B9B5",
"Q. c #B9B9B9",
"!. c #87F987",
"~. c #9AFD9A",
"^. c #94F795",
"/. c #9FF2A0",
"(. c #A2FCA3",
"). c #A3F1A5",
"_. c #B4FEB1",
"`. c #B0CDAF",
"'. c #C0C0BE",
"]. c #C4C4C4",
"[. c #CCCCCC",
"{. c #D3D3D3",
"}. c #DBDBDB",
"|. c #D7D8D9",
" X c #C9D3C8",
".X c #DFDFE1",
"XX c #E4E3E4",
"oX c #E6E6E8",
"OX c #ECECEC",
"+X c #E8EDE7",
"@X c #EFEFF1",
"#X c #F3ECF3",
"$X c #F5F5F5",
"%X c #FEFEFE",
"&X c #F9F9F7",
/* pixels */
"%X%X%X&X&X%X%X%X%X%X%X%X%X%X%X%X%X%X%X%X%X%X%X%X%X%X%X%X%X%X%X%X%X%X%X%X%X%X%X%X%X%X%X%X%X%X%X%X%X%X",
"%X%X%X%X%X%X%X%X%X%X%X%X%X%X%X%X%X%X%X%X%X%X%X%X%X%X%X%X%X%X%X%X%X%X%X%X%X%X%X%X%X%X%X%X%X%X%X%X%X%X",
"%X%X%X%X%X%X%X%X%X%X%X%X%X(.~.%X%X%X&X%X%X%X%X%X_.(.%X%X%X%X%X%X%X%X%X%X%X%X%X%X%X%X%X%X%X%X%X%X%X%X",
"%X%X%X%X%X%X%X%X%X%X%X%X%X!.K.%X&X@XOXOXOXOXOX#XG.h.OXOXOXOXOXOX$X%X%X%X%X%X%X%X%X%X%X%X%X%X%X%XOXoX",
"&X%X%X%X%X%X%X%X%X%X%X%X%X%X%X%X%X&Xs   v f l d c c x &   k f % oX%X%X%X%X%X%X%X%X%X%X%X%X%X%X%X.X}.",
"%X%X%X%X%X%X%X%X%X%X%X+XR.Q.Q.`.W.T.b.z.  = X X & =   z.b.6     U.E.E.E.Q.T.}.%X%X%X%X%X%X%X%X%X$X$X",
"%X%X%X%X%X%X%X%X%X$X%X XV   3 o.3   ~.D.  8 2 2 2 8   D.~.A   8             E.%X&X&X%X%X%X%X%X%X%X%X",
"%X%X%X%X%X%X%X%X].n [ / e X   * ;.d.s.a.6.6.6.6.9.6.6.t.j.6.6.6.G t e r r * W [ n E.%X%X%X&X%X%X%X%X",
"%X%X%X%X%X%X$X}.I.    C O.l.x.X.<.0.6.0.0.0.0.q.0.f.A.k.0.q.0.0.$.X.O.o.o.+.Z   & z.|.$X&X&X%X%X%X%X",
"%X%X%X%X%X%X#X    * * @.0.!.^.0.0.w.q.0.0.0.0.e.0.n.).J.0.8.9.0.0.0.0.0.0.0.$.* * u m XX%X%X%X%X%X%X",
"%X%X%X%X%X]...p =.,.,.5.0.C.J.!.Z.0.q.0.0.0.0.0.p.t.C.j.0.q.0.0.q.q.0.0.0.0.6.>.y.v.] ..E.%X%X%X%X%X",
"%X%X%X%X%XU.  p c.d.k.j.0.0.B.~.H.0.e.0.0.0.0.0.m.s.0.0.q.0.0.0.q.w.0.0.q.0.0.k.A.m.R   | %X%X%X%X%X",
"%X%X%X%X%XY.  p -.r.^.!.0.0.B./.H.0.2.5.0.0.0.0.1.i.0.w.0.0.0.0.0.0.0.q.0.0.Z.H.Z.i.y   L.%X%X%X%X%X",
"%X%X%X%X%XY.  s @.%.G.A.0.0.g.F.k.0.7.6.0.5.6.0.9.6.0.0.0.0.0.0.5.6.0.6.5.j.A.N.2.=.!   L.%X%X%X%X%X",
"%X%X%X%X%XU.  b r r ,.9.9.q.6.#.6.q.0.0.0.:.>.0.0.w.0.9.0.0.0.0.:.:.0.u.M.S.N.6.z y `    .%X%X%X%X%X",
"%X%X%X%X%XY.  l 5 x S S G D *.4.0.0.0.0.0.0.0.0.0.0.0.0.0.0.0.0.0.0.6.v.| H J H z ; k   L.%X%X%X%X%X",
"%X%X%X$X[.L.  : - : * * * r A &.2.3.1.1.3.3.3.3.3.3.3.3.3.1.1.3.3.1.#.K E   y p > X :   { [.OX%X%X%X",
"%X&X%X}.    o       + 2 2 0 f y y t y y y y t t t t t t t t y y y t y i 7 ; + +   . o -     ].%X$X$X",
"&X%X%XXX  :               X o # x 7 $ 1 # 1 4 4 5 7 5 4 # 1 # $ f 6 $ - - i w i : w w d k   {.%XXX|.",
"&X%XOX].  :               . o . > > . o o @ @ ; > > ; % @ @ % O ; : o . > k k x k x k k k   E.@XoXoX",
"%X%X|   d                 w f d l d l f f f f l d l d l d d d d d 6 i d l v n n P P F k : m   ^ &X%X",
"%X%X .  i           . o : w f l l d l d l g k m v k k x v v m v m m m v b m n F Q P ~ m v m   ) &X%X",
"%X&X .  : . .     o   o f l d g g f d f l k v n m v m m m ~ N P P ~ ~ T T N n ~ F n Q ~ b v   _ &X%X",
"%X%XL.  :       o   o l d l l f d l w v T n n n n n T n P n ~ n n F n T n n F ~ F ~ T ~ m m   ) &X%X",
"OX].{   k d l .   v _ n : k d d l l k b ~ n T F n n ~ ~ F n ~ n F N T ~ n N ~ F n m F ~ m v   ) %X%X",
"[.  P P P ~ m   ^ { v   l d l l d l v m N n ~ n _ ~ m P n F F Q T P F T T F ~ m ) ) m ~ m m   ) $X%X",
"[.  / P I 9 j _ ) o   > l d l f d f n n F T n m ) ) b ~ T T ~ n P T ~ n F ~ n m ^ ) m ~ n v   ) &X%X",
"[.  / P U M ' (     . - l l d d l g n m ~ ~ ~ F m n n n P F N n T F n n Q n ~ n n n F n b v   _ %X%X",
"[.  Y Y L U L     o   - f g d l l f w v ~ n n T ~ ~ n P T F N n F n ~ Q n ~ n n F n n k d v   _ $X%X",
"OX].' , Y U L v w     - g f d d d l d v ~ F T P n T F ~ P T T ~ T ~ n n N n ~ n F F ~ v w k   / &X%X",
"%X%XP.< Y U I ~ k     - l l d d f l d v n n P T N F T T Q n F T ~ v b / n ~ ~ ~ F F n k > - - } &X%X",
"%X%X%X{.  n P P k   .     : l d d d d k m n ~ P T T F N F ~ ~ ~ k _ P.[ v ~ n T ~ m l k v   '.%X%X%X",
"XX$X%XXX  k k v :         w l l m g g g k m m ~ F ~ n n n ~ n k { I.{ n F F T n m v d d d   [.%X%X&X",
"}.OX%X}.  :               d l d m v d g g f v n n n ~ n F n n | P.^ k n T n Q n l d l - o   [.%X&X&X",
"$X&X%X}.    >             X - l g g d d g g k k n ~ ~ ~ F m P.L.n b / F F m v f k 6 i   | XX$X%X%X%X",
"%X%X%XXX| )   o     .   o     6 d d d d l f l d m m n m n n ) m m ~ m m m k l d d o d   L.%X%X%X%X%X",
"%X%X%X%X%XI.  k - .   k _ b     : h g d d d d l d l d k v n m n n v d d d l l l   . k    .%X%X%X%X%X",
"%X%X%X%X%XXXQ.      : ^ _ v     % > : d f l d l d d d l f v v v k k d l l : > - >     T.}.&X%X%X%X%X",
"%X%X%X%X%X%X$X_ m ^ ^ ^ k   o       % : d d l l d l l d d d d d l d d d w : o o X / | OX%X%X%X%X%X%X",
"%X%X%X%X%X%X&X%XE.  ( -   .             . - : d x l l f g f g g k d @ o   .   -   U.&X$X%X%X%X%X%X%X",
"%X%X%X%X%X%X%X%X}.Y./   o                 o > : v d : : : : : : : > .   .     ) Y.[.%X%X%X%X%X%X%X%X",
"%X%X%X%X%X%X&X&X%X%X)   f .                       .               . : : . l ) { $X%X&X%X%X%X%X%X%X%X",
"%X%X%X%X%X&X&X%X%X&X$XQ.  . -   .                         . .   -         / ) / OX%X%X%X%X%X%X%X%X%X",
"%X%X%X%X$X&X%X%X%X%X%XXX .) - l d d                       i d f   ^ L.P.I.{ b m @X%X%X%X%X%X%X%X%X%X",
"%X%X%X&X%X%X%X%X%X%X%X%X%X|           .   o - - - - o > o          .%X%XOX      OX%X%X%X%X%X%X%X%X%X",
"%X%X%X%X%X%X%X%X%X%X%X%X%X}.[.{.{.].k   -               > ].{.[.[.}.%X%X$X{.[.{.&X%X%X%X%X%X%X%X%X%X",
"$X%X%X%X%X%X%X%X%X%X%X%X%X%X%X%X%X$X/ o v ( _ ) ) ) _ ^ { &X%X%X%X%X%X%X%X%X%X%X%X%X%X%X%X%X%X%X%X%X",
"|.&X%X%X%X%X%X%X%X%X%X%X%X%X%XOX|.|.      XX%X$X%X%X&X&X$X%X%X%X$X%X%X%X%X%X%X%X%X%X%X%X%X%X%X%X$X%X",
"OX$X%X%X%X%X%X%X%X%X%X%X%X%X%X&XOXOXQ.T.T.$X%X%X%X%X%X%X%X%X%X%X%X%X%X%X%X%X%X%X%X%X%X%X%X%X%X%X%X%X",
"%X%X%X%X%X%X%X%X%X%X%X%X%X%X%X%X%X%X%X%X%X%X%X%X%X%X%X%X%X%X%X%X%X%X%X%X%X%X%X%X%X%X%X%X%X%X%X%X%X%X"
};
