/* XPM */
static char *_37659789680495de76db1d7a1078ad7tmpqbrSnMZ6hmG9m[] = {
/* columns rows colors chars-per-pixel */
"50 50 5 1 ",
"  c None",
". c black",
"X c #795548",
"o c #FF1744",
"O c #FCE4EC",
/* pixels */
"                                                  ",
"                                                  ",
"                                                  ",
"                                                  ",
"                                                  ",
"                                                  ",
"                                                  ",
"                                                  ",
"                                                  ",
"                                                  ",
"                                                  ",
"                                                  ",
"                  XXXXXXXXXXXXXX                  ",
"                  XXXXXXXXXXXXXX                  ",
"               .....................              ",
"               .....................              ",
"                ..              ..                ",
"                ..              ..                ",
"                ..              ..                ",
"                ..              ..                ",
"                ..              ..                ",
"                ..              ..                ",
"                ..              ..                ",
"                ..o            o..                ",
"                ..ooooooooooooooo..               ",
"               ..ooooooooooooooooo..              ",
"              ..ooooooooooooooooooo..             ",
"             ..oooooooooooooOOOOOoo..             ",
"            ...ooooooooooooooOOOOOoo..            ",
"            ..oooooooooooooooOOOOOoo..            ",
"            .ooooooooooooooooOOOOOooo.            ",
"            .ooooooooooooooooOOOOOooo.            ",
"            .ooooooooooooooooOOOOOooo.            ",
"            .ooooooooooooooooOOOOOooo.            ",
"            .ooooooooooooooooOOOOOooo.            ",
"            .ooooooooooooooooOOOOoooo.            ",
"            ..oooooooooooooooOoooooo..            ",
"             ..oooooooooooooooooooo..             ",
"              ..oooooooooooooooooo..              ",
"               ..oooooooooooooooo..               ",
"                ....oooooooooo....                ",
"                   ............                   ",
"                                                  ",
"                                                  ",
"                                                  ",
"                                                  ",
"                                                  ",
"                                                  ",
"                                                  ",
"                                                  "
};
