/* XPM */
static char *_fc9fa49f30e427baafad6a041b76500NbQ9yKZyD0EeDHwu[] = {
/* columns rows colors chars-per-pixel */
"50 50 5 1 ",
"  c None",
". c #795548",
"X c #FF1744",
"o c #607D8B",
"O c #FCE4EC",
/* pixels */
"                                                  ",
"                                                  ",
"                                                  ",
"                                                  ",
"                                                  ",
"                                                  ",
"                                                  ",
"                                                  ",
"                                                  ",
"                                                  ",
"                                                  ",
"                                                  ",
"                                                  ",
"                                                  ",
"                                                  ",
"                    .........                     ",
"                    .........                     ",
"                  ooooooooooooo                   ",
"                  ooooooooooooo                   ",
"                   oo       oo                    ",
"                   oo       oo                    ",
"                   oo       oo                    ",
"                   oo       oo                    ",
"                   oo       oo                    ",
"                   oo       oo                    ",
"                  oooX     Xoo                    ",
"                 oooXXXXXXXXXoo                   ",
"                 ooXXXXXXXXOOXoo                  ",
"                 ooXXXXXXXXOOXoo                  ",
"                 ooXXXXXXXXOOXoo                  ",
"                 ooXXXXXXXXOOXoo                  ",
"                 ooXXXXXXXXOXXoo                  ",
"                 ooXXXXXXXXXXXoo                  ",
"                 ooXXXXXXXXXXXoo                  ",
"                  ooXXXXXXXXXoo                   ",
"                   ooooooooooo                    ",
"                    ooooooooo                     ",
"                                                  ",
"                                                  ",
"                                                  ",
"                                                  ",
"                                                  ",
"                                                  ",
"                                                  ",
"                                                  ",
"                                                  ",
"                                                  ",
"                                                  ",
"                                                  ",
"                                                  "
};
