/* XPM */
static char *_36f1ba30ecf4275f34a547e9f53d1a6emOiKoKmwvFVvrNj[] = {
/* columns rows colors chars-per-pixel */
"50 50 7 1 ",
"  c None",
". c black",
"X c #3E2723",
"o c #B71C1C",
"O c #64DD17",
"+ c #76FF03",
"@ c #A1887F",
/* pixels */
"                                                  ",
"                                                  ",
"                                                  ",
"                                                  ",
"                                                  ",
"                                                  ",
"               .....OO............                ",
"             ...++++OO+++++++++++...              ",
"            ...+++O++++++O+++O++++...             ",
"           ..++++++++OO+++++++++OO++..            ",
"          .++++++OO++OO+++O+++++OO+++..           ",
"         ..++++++OO+++++++++++++++++++..          ",
"         ....++++++++++++++++O++++++....          ",
"        .XXX...+++++++++OO+++++++++..XX..         ",
"      ..XXXXXX...+++O+++OO++++O++..XXXXX.         ",
"      .XXXXXXXXX.................XXXXXXXX.        ",
"     ..XXXXXXXXXXXXXXXXXXXXXXXXXXXX@@@XXX..       ",
"     .XXXXXXXXXXXXXXXXXXXXXXXXXXXXX@@@XXXX.       ",
"    .X..XXXXXXXXXXXXXXXXXXXXXXXXXXX@@@@XXX.       ",
"    ...XXXXXXXXXXXXXXXXXXXXXXXXXXXX@@@@XXXX.      ",
"    ..XXXXXXXXXXXXXooXXXXXoXXXXXXXX@@@@@XXX.      ",
"    ...XXXXoooXXXXXoXXXXXXoXXXXXXXX@@@@@XXX.      ",
"    .X..XXooXoXXoXooXXoXXXoXXXXXXXX@@@@@XXX.      ",
"    .XXXXXooooXXoXoXXXoXXXoXXXXXXXXX@@@@XXXX.     ",
"    .XXXXXoXXXXXXoXXXXoXXXoXXoXXXXXX@@@@XXXX.     ",
"    .XXXXXoooXXXoooXXXoXoooooXXXXXXX@@@@XXXX.     ",
"    .XXXXXXXooXooXooXXoXXXoXXXXXXXXX@@XXXXXX.     ",
"    .XXXXXXXXXooXXXoXXoXXXoXXXXXXXXX@@XXXXXX.     ",
"    .XXXXXXXXooXXXXXXXXXXXoXXXXXXXX@@XXXXXX.      ",
"    ..XXXXXXXoXXXXXXXXXXXXoXXXXXXXX@XXXXXXX.      ",
"     .XXXXXXXXXXXXXXXXXXXXoXXXXXXX@@XXXXXXX.      ",
"     ..XXXXXXXXXXXXXXXXXXXoooXXXXX@XXXXXXX..      ",
"      .XXXXXXXXXXXXXXXXXXXXXooXXXXXXXXXXXX.       ",
"       .XXXXXXXXXXXXXXXXXXXXXoXXXXXXXXXXX.        ",
"        ..XXXXXXXXXXXXXXXXXXXooXXXXXXXXX..        ",
"         ..XXXXXXXXXXXXXXXXXXXoXXXXXXX..          ",
"          ...XXXXXXXXXXXXXXXXXXXXXXXX..           ",
"          .....XXXXXXXXXXXXXXXoXXX...             ",
"         .......XXXXXXXXXXXXXXo......             ",
"        ...............................           ",
"       .........              o  .......          ",
"      ......                      .......         ",
"      ...                     o     .....         ",
"                                       ..         ",
"                                                  ",
"                                                  ",
"                                                  ",
"                                                  ",
"                                                  ",
"                                                  "
};
