/* XPM */
static char *a839919f703c4d73b05594a2c1236defIVeKg2REvfmLwquc[] = {
/* columns rows colors chars-per-pixel */
"50 50 9 1 ",
"  c None",
". c #FF8F00",
"X c #FFA000",
"o c #FFB300",
"O c #FFC107",
"+ c #FFCA28",
"@ c #FFD54F",
"# c #FFE082",
"$ c #FFECB3",
/* pixels */
"                                                  ",
"      ooo             OO++         ..O            ",
"      O.o   @@     @ +O++     @   .OOO       OOOO ",
"     OO.o          @ O.         @ OOO   @    OOOO ",
" @   OO.o  @         O.           ..O       OOOOO ",
"    OOO.o           ...           ..O      OOOOO  ",
"    OO..o @         ...X          OOO     OO.OO   ",
"    OO..o           O.OO      @   OO. @   O.OOO  @",
"    OO.XO        @  O..O      @   OO.    OO.OO  @ ",
" @  OO.oO  @       .O.OO        @ .OO    OO.OO    ",
"    OOoOO  @       .X.OXX       @ .O.    OO.OO  @ ",
"     OoOOO         OX.OX     @    .OO    OO.O     ",
"     OoOOOO  @     O...      @    OO.    OO.O     ",
"    OOoOOOO  @   @ .OOO           OOO  @ OO.O     ",
"    OOXOO        @ .OOO. O       .OO.    OO..O   @",
" @  O.XOO  O       OO...         O...    OO..OO   ",
"    OOXXOO      @@OOO.OO        .OOO     OOO..O   ",
"   O...XOO  O     o..OOO..   O  OOOOO  @ O.O..O   ",
"   OO..XXOO O  @@o..O  O..   O .OO.OO    .OOOOOO  ",
"   OOOOOXXO      o.o   OO.O   O.OO.O @   .OOO.OO  ",
"   OOO.OOXOO     Ooo   OO.O   O.O..O    .OOOO.OO  ",
"  OOOOOOOOXOO O  Oo    O@.O   OOO.O    .OOOOO.OO  ",
"  OOOOOOOO.OO+ O O.@   @@.OOO OOOOO   .OOOOXO.OO  ",
"  OOOO.O@@.XO++O  O@ XX@@..@@.OOOOO ..OOOOX@@..O  ",
" OOOO..@@@XX+++OO    X@@@@.@@@OOOOO..O OOXX@@..O  ",
" OOOO.O@#@@@XO+++OXXX@@@##.@@@XXXOO.OOOOOX@@@.OOO ",
" OO...O@##@@XXX++XX+++@@#OO##@@.XXOOOOOOX@@@@OO.O ",
" O..@@@###@@@@XX+X++@@########@@@XXOOOOXX@##@@O.. ",
" O.O@######@@@@XXX+@@#####OO###@@@@X@@@X#####@O..O",
" O.@@######@@@@@XX@@@######$$###@@OX@@@X$####@OO.O",
" O@@#########@@@XX@@#####$#$$$$##@@X@@##$#####@OOO",
" O@@##########@@@@@###$#O$$$$$$###@@@##$$$######@@",
" O@@###########@@@@##$$$O$$$OO$####@@##$#O$#$$$##@",
" @@##$##$##$$###@@###$$O$$$OO$$#######$$$O$$$$$##@",
"@@##$$$$$#$$$$$###$$#$$O$$$O$$$#$$####O$$$O$$$$##@",
"@@##$$$O$$O$$$$$##$$#$O$$$$$$$$$#$###$O$$$$O$$$##@",
"@@##$$$$$$$$$$$$$#$$$$O$$$$$$$$$####$$O$$O$$O$$##@",
" @##$$$$OO$$$$$$##$$$$$$$$$$$$$$####$$O$OO$$$$###@",
" @##$$$$$$$$$$$$##$$$$$$$$$$$$$$####$$$$O$$$$$##@@",
" @##$$$$$$$$$$$$$#$$$$$$$#$$$$$$####$#$$O$$$$###@ ",
" @##$$$$$$$$$$$$$#$$$$$$$$$$$$$$####$$$$$$$$$$##@ ",
" @###$O$$$$$$$##$##$$$O$$$$$$#$##@##$$$$$$$$$$##@ ",
" @@###$$$$$$$$##$##$$$$$$$$$####@@@@###$$$$$$$##@ ",
"  @@###$$#$$$$#####$$$$$$#$$##@@@@@@@######$###@@ ",
"   @@###$#$$###@@####$#$$$###@@@@@@@@#########@@  ",
"    @@####$###@@@@@###$$#####@@@@@@@@@@######@@@  ",
"     @@@######@@@@@@#######@@@@@@@@@@@@@@@@@@@@@  ",
"       @@@@@@@@@@@@@@#####@@@@@@    @@@@@@@@@@@   ",
"         @@@@@@@@@@@@@@@@@@@@@      @@@@@@@@@@    ",
"                                                  "
};
