/* XPM */
static char *_f62e8803b8a43b5b7b0d68d29880d07Rn3qRdWpGSatpGJc[] = {
/* columns rows colors chars-per-pixel */
"50 50 12 1 ",
"  c None",
". c #FF8F00",
"X c #FFA000",
"o c #FFB300",
"O c #FFC107",
"+ c #FFCA28",
"@ c #FDD835",
"# c #FFEB3B",
"$ c #FFD54F",
"% c #FFF176",
"& c #FFE082",
"* c #FFECB3",
/* pixels */
"                      @@              @           ",
"                     @@@++         . @@           ",
"        o @   @    $@@O++     $     @@            ",
"        o @   @    $@@.    @    $  OO   $         ",
" $     .o           @@.    @       .O             ",
"      O.o           @..           ..O      O      ",
"    O ..     @     @...X   @  @   OOO     OO      ",
"     O..            O.OO      @   OO. $   O.     $",
"    OO.          $   ..O         @OO.    OO.    $ ",
" $  OO.              .OO         @.OO    OO.      ",
"    OOo    $         .OXX         .O.    OO     $ ",
"     O   @           .OX  @       .OO    OO O     ",
"         OO          ..           OO.    OO.O     ",
"    O o OOO      $ .OOO       @   OOO@ $ OO.O     ",
"    O XOO   @    $ .OOO. O    @  .OO @   OO..O   $",
" $  O XOO  O       OO...         O..     OO..OO   ",
"    OOXX@O      $$OOO.OO        .OOO     OOO..O   ",
"   O...X@@  O     o..OOO..   O  OOO    $ O.O..O   ",
"   OO..X@@O O  $   .O  O..   O .OO. @    .OOOOOO  ",
"   OOOOO@@O        o   OO.O   O.OO   $   .OOO.OO  ",
"   OOO.O@@OO       o   OO.O   O.O. @    .OOOO.OO  ",
"  OOOOOOO@XOO O  O     O$.O   OOO      .OOOOO.OO  ",
"  OOOOOOO@@OO+ O O     $$.OOO OOO O   .OOOOXO.OO  ",
"  OOOO.O$@@XO++   O$ XX$$..$$.OOOOO ..OOOOX$$..O  ",
" OOOO..$$@@X+++OO    X$$$$.$$$OOOOO..O OOXX$$..O  ",
" OOOO.O$&@@$XO+++OXXX$$$&&.$$$XXXOO.OOOOOX$$$.OOO ",
" OO...O$&& $XXX++XX+++$$&OO&&$$.XXOOOOOOX$$$$OO.O ",
" O..$$$&&&$$$$XX+X++$$&&&&&&&&$$$XXOOOOXX$&&$$O.. ",
" O.O$&&&&&&$$$$XXX+$$&&&&&&&&&&$$$$X$$$X&&&&&$O..O",
" O.$$&&&&&&$$$$$XX$$$&&&&&&**&&&$$OX$$$X*&&&&$OO.O",
" O$$&&&&&&&&&$$$XX$$&&&&&oo****&&$$X$$&&*&&&&&$OOO",
" O$$&&&&&&&&&&$$$$$&&&*&o******&&&$$$&&***&&&&&&$$",
" O$$&&&&&&&&&&&$$$$&&**oo******&&&&$$&&*&**&***&&$",
" $$&&&&&*&&**&&&$$&&&**o***$$$*&&&&&&&*****o***&&$",
"$&&&&oo**&$****&&&**&**o******$&**&&&&****ooo**&&$",
"$&&&&*oo*$$*****&&**&*o*********&*&&&**********&&$",
"&$&&&&*o$$****$**&****o*********&&&&********o**&&$",
"&$&&&&%*o****$$*&&****oo$$******&&&&*&*oo**oo*&&&$",
" $$&&&%**o***$**&&***$$$*******&&&&&**o***oo**&&$$",
" $$&&&&%%***$$***&*******&***&&$$&&&*&o***oo*&&&$ ",
"  $&&&&&%%**$****&*********&&*$$&&&&*&*&&oo***&$$ ",
"  $$&&&&&&****&&*&&********&*$$&&$&&*&&*&&***$$$$ ",
"   $$&&&&&&#**&&*&&*******&*&$&&$$$$&&&&&***$$$&  ",
"    $$&&&&&&&*&&&&&*****&&$$$&$$$$$$$&&&&&&$$$$$  ",
"     $$&&$&&&&&$$&&&&*&*&*$&&$$$$$$$$&&&&&$$$&$   ",
"      $$$$&&&&$$$$$&&&**&$&&&$$$$$$$$$$&&&$$&$$   ",
"        $$&&&&$$$$$$&&&&&&&$$$$$$$$$$$$$$$$$$$    ",
"         $$$$$&$$$$$$&&&&&$$$$$$      $$$$$$      ",
"          $$$$&$$$$$$$$$$$$$$$        $$$$$$      ",
"                                                  "
};
