/* XPM */
static char *_2403db7c4934939a64847e7ff951e40tdbBLPYH6x2OAqQu[] = {
/* columns rows colors chars-per-pixel */
"50 50 10 1 ",
"  c None",
". c #FF8F00",
"X c #FFA000",
"o c #FFB300",
"O c #FFC107",
"+ c #FFCA28",
"@ c #FDD835",
"# c #FFD54F",
"$ c #FFE082",
"% c #FFECB3",
/* pixels */
"        o             @@              @           ",
"        o           X@@@++         . @@           ",
"        o @   @    X@@O++     #     @@            ",
"       oo @   @   XXO@.    @    #  OO   #    XX   ",
" #     oo         XoO@.    @       .OXX      XXX  ",
"      oooX        XoO..           ..OX     OXXXXX ",
"    O oo X   @    XoO..X   @  @   OOOX    OOXX XX ",
"     Ooo X        XoO.OO      @   OO.XX   OXX XXX#",
"    OoooXX       #XoO.OO         @OO.XX  OOX    # ",
" #  OoooX         XXOOOO         @.OOXX  OOX      ",
"    oooo   #      XXoOOOX        O.O.XX  OXX    # ",
"    oooo @         XoOOO  @      O.OOXX  OXXO     ",
"    o oo OO        XoO.O         OOOOXX  OXXO     ",
"    oXooOOO      # XoOOO      @ OOOOOXX# OX.X     ",
"   oOoXoO   @    # .oOOO O    @ O.OOOXX  OXXXO   #",
" # oooXoO  O      oooXOO        OO.OOXX  OOXXOO   ",
"    ooXooO      #ooOOXOO       O.OOOOXX  OOOX.O   ",
"   Ooo.ooo  O    oo..ooOOO   O OOOOOOX # O.OXXO   ",
"   OOX.X@oo O  # oo.O oOOOO  OO.OOOO@X   .OOOXOO  ",
"   OOXOO@@Ooo    ooo  oOOOO   O.OOOOX#   .OOOXOO  ",
"   OXO.O@@OOo      o  oOO.O  OO.OOO@X   .OOOO.XO  ",
"  OXOOOOO@XOOoO  O    oo#.O  OOOOOOX   .OOOOO.XO  ",
"  XOOOOOO@@OOooO O    o#X.OOOOOOOOXX  .OOXXXO.XO  ",
"  XOOO.O#@@XOoo   O# Xo#X..##OOOOXO ..OOOXX##..X  ",
" OXOO..##X@X++oOO    X##X#.##OOOOOO..OOOOXX##..X  ",
" XOOO.O#$XX#XOo++OXXX#XX$$.###XXXOO.OOOOXX###.OXO ",
"XOO...O#$$X#XXX++XX+++X#$OO$%%#.XXOOOOOOX####OOXO ",
"XO..###$$$XX##XX+X++#X$$$$$$%%###XXOOOOXX#$$##OX. ",
"XO.O#$oo$$$#XX#XXX+#X$$$$$$%$%$####X##XX$$$$$#O..O",
"XX.##$o%$$$##XX#XX##X$$$%%%%%%%$##OX#XXX%$$$$#OO.O",
"XO##$$o%%$$$$###XX##$$$%%%%%%%%$$##X##$$%$$$$$#OOO",
"XO##$$o%%%$$$$#####$$$%%%%%%%%%$$$###$$%%%$$$$$$##",
"XO##$oo%%%%$$$$####$$%%%%%%%%%%$$$$##$$%$%%$%%%$$#",
"X##$$o%%%%%%%$$$##$$$%%%%%%%%%%$$$$$$$%%X%%%%%%$$#",
"X$$$oo%%%%%%%%%$$$%%$%%%X%%%%%%$%%$$$$%%X%%%%%X$$#",
"#$$$oo%%%%%%X%%%$$%%$%%%X%%%%%%%$%$$$%%%%%%%%%X$$#",
"$#$$$oo%%%%%X%%%%$%%%%%X%%%%%%%%$$$$%%%%%%%%%%X$$#",
"$#$$$$oo%%%X%%%%$$%%%%%X%%%%%%%%%$$$%$%%%X%%%%X$$#",
" ##$$$%%o%%X%%%%$$%%%%%%%%%%%%%%$$$$%%%%%%%%%XX$##",
" ##$$$%%oo%X%%%%%$%%%%X%%%%%%$%%#$$$%$%%%%%%%XX$# ",
"  #$$$$%%o%%%%%%%$%%%%X%%%%$%%%#$$$$%$%$%%%%%XX## ",
"  ##$$$$$%%%%%$$%$$%%%%%%%%%%%#$$#$$%$$%$$%%X%%## ",
"   ##$$$$$$%%%$$%$$%%%%%%%%%$#$$####$$$$$%%%X%#$  ",
"    ##$$$$$$$%$$$$$%%%%%$%%##$#######$$$$$$#%###  ",
"     ##$$#$$$$$##$$$$%$%$%#$$########$$$$$%%#$#   ",
"      ####$$$$#####$$$%%$#$$$##########$$%##$##   ",
"        ##$$$$######$$$$$$$###################    ",
"         #####$######$$$$$######      ######      ",
"          ####$###############        ######      ",
"                                                  "
};
