/* XPM */
static char *_14431494b2945d1caac81258c345b39wzrPem4TIPwHL6Il[] = {
/* columns rows colors chars-per-pixel */
"50 50 144 2 ",
"   c #1F7628",
".  c #1F792F",
"X  c #24752E",
"o  c #297128",
"O  c #267B2F",
"+  c #2A7A2F",
"@  c #267D34",
"#  c #2A7D35",
"$  c #277C38",
"%  c #2B7E3A",
"&  c #327D35",
"*  c #347F39",
"=  c #268036",
"-  c #2C8236",
";  c #268138",
":  c #2D833B",
">  c #2E893E",
",  c #318237",
"<  c #32853C",
"1  c #3A853D",
"2  c #33893D",
"3  c #3A893E",
"4  c #2F8440",
"5  c #2E8840",
"6  c #328641",
"7  c #3B8641",
"8  c #378D42",
"9  c #368C43",
"0  c #368D41",
"q  c #348945",
"w  c #358B44",
"e  c #358A46",
"r  c #368B47",
"t  c #378D44",
"y  c #368C45",
"u  c #378D46",
"i  c #358A42",
"p  c #388A40",
"a  c #398B41",
"s  c #388B43",
"d  c #3E8A40",
"f  c #388C41",
"g  c #388F41",
"h  c #398D42",
"j  c #388E43",
"k  c #3A8E43",
"l  c #388B45",
"z  c #398C44",
"x  c #3A8D45",
"c  c #3B8D45",
"v  c #398F44",
"b  c #388E45",
"n  c #3B8F44",
"m  c #398F46",
"M  c #388E47",
"N  c #3B8E46",
"B  c #3C8E46",
"V  c #3C8F47",
"C  c #398C44",
"Z  c #368D48",
"A  c #388D49",
"S  c #398F48",
"D  c #3B8E48",
"F  c #3A8F4B",
"G  c #3A8E48",
"H  c #369144",
"J  c #399042",
"K  c #399143",
"L  c #3A9143",
"P  c #389044",
"I  c #399145",
"U  c #3A9045",
"Y  c #3B9244",
"T  c #3B9345",
"R  c #3B9146",
"E  c #3A9047",
"W  c #3A9246",
"Q  c #3C9045",
"!  c #3C9345",
"~  c #3D9146",
"^  c #3C9247",
"/  c #3E9247",
"(  c #3D9547",
")  c #3E9547",
"_  c #3B9146",
"`  c #3A9049",
"'  c #3B914A",
"]  c #3E9149",
"[  c #3F9149",
"{  c #3D9348",
"}  c #3C9249",
"|  c #3D934A",
" . c #3F924A",
".. c #3E9449",
"X. c #3E9648",
"o. c #3F9648",
"O. c #3F954A",
"+. c #3E944B",
"@. c #3B904C",
"#. c #3C914D",
"$. c #3D924A",
"%. c #408C42",
"&. c #438F45",
"*. c #428D45",
"=. c #419246",
"-. c #419247",
";. c #489047",
":. c #409248",
">. c #409449",
",. c #409749",
"<. c #41954A",
"1. c #47954A",
"2. c #41944C",
"3. c #41974C",
"4. c #40964D",
"5. c #43974C",
"6. c #41974E",
"7. c #40964F",
"8. c #43944C",
"9. c #4B934B",
"0. c #41984A",
"q. c #439A4C",
"w. c #44984D",
"e. c #469D4F",
"r. c #46994C",
"t. c #499B4F",
"y. c #51974F",
"u. c #50984F",
"i. c #439650",
"p. c #449A51",
"a. c #459B52",
"s. c #4C9C53",
"d. c #539B53",
"f. c #589E56",
"g. c #49A052",
"h. c #4AA055",
"j. c #4EA056",
"k. c #4DA25A",
"l. c #57A057",
"z. c #55A157",
"x. c #57A45C",
"c. c #5DA45C",
"v. c #61A75F",
"b. c #69B16A",
/* pixels */
": < < p z < @ - - g g - 2 - 2 g 2 - > g < > : : 6 u : - | 2 < : 0 2 ; p.< - : 2 : - , 2 > - > 2 - 2 ",
"# < C C p : : - - 2 2 K - T K - - - > g C > p : p +.$ > ' : 6.u - : < $ 3 < R - < X.X.- e.T 2 2 - - ",
"6 < V C 2 k o.: - 2 g - K g 2 - 2 2 2 2 0 > #.C : p < i i ; 0 z $ 2 < ; > 2 i R 2 ( 2 > 2 3 2 3 2 , ",
"V p C p 0 3 k - - K X.- K g 2 ( X.T 2 2 i < z 6 ; ; u o.> : : p | k $ u 3 X.: 2 2 3 = - > 3 2 2 X., ",
"6 6 C C ~ : : - 2 - K T = g > ( 2 > 2 R u R > : : < : 6.w ; z < ' > : < 3 R < $ 2 ! 2   ( 3 - > o.> ",
"< < 2 2 >.3 - 0 K - g T - K - K > = : 0 u | : : : : $ w p u 0 > p > p > - < K 0 K , Y 2 g.2 - - z 2 ",
"< < < - 2 < - : g 2 2 - K - - 2 2 > > > > 6 : : : @ > 4 i #.: 6 u u : 2 > R k o.X.O Y e.T 2 - 2 p < ",
"< 7 a 2 - , < : g g 2 g - 2 > g 2 > - : : > 6 : @ : $ : : % : > - u 2 - - : : 2 2 > Y 2 - 3 - 3 : < ",
"% 2 < 2 k k - p i 0 2 0 - - 2 - < ; % : 4 ' u $ 6 p > @ % 4 % @ ; : p 0 < 2 2 h.2 Y g - - - > e.c 6 ",
"# z < 6 3 < 2 0 > R Y < = 2 g g ; 6 q > i 4 i : : 6 6 > : : : w p : ; < u R 2 R 0.2 - - - 2 - 2 < * ",
"6 8.7 2 3 > 0 2 2 2 2 3 2 g 2 ( $ 0 ' : i 4 q u : 4 5 w A w A +.i ; - - 0 2 2 < 3 - 2 g 2 2 2 3 6 6 ",
"2 a # % 2 3 2 2 2 2 > 3 2 2 > 2 : w i % > u q 6 $ : 4 i u w w F : > : - 2 : 0 2 - g 2 2 J 2 - q.< * ",
"7 < < * p z - : 2 T 2 2 - - > 2 < % : 4 4 F e $ 4 r F 6 : 4 4 : > 2 > - 2 3 q.2 - 2 - - 2 2 - 2 < q ",
"#.p V a R z - - 2 K 2 - 2 2 2 3 > $ $ % % A q 4 4 #.#.6 4 4 4 % , 2 H < T 2 2 2 2 - g - - 2 2 2 C D ",
"2 < 7 6 k 3 : - > - - - 2 2 - 2 q 4 4 % $ 4 % 4 4 4 6 % % 4 : : > 2 2 2 2 - - - 2 J 0.! 2 2 3 2 : < ",
"% 2 6 2 k 0 0 : - < 2 - - 2 - 2 4 4 6 % : % @ : 4 4 ; % 6 % % 6 2 - - 2 2 2 - 2 2 J 2 2 3 3 - 2 @ % ",
"2 , < k 3 , , 2 , , 2 < , - < - : : : : - : = 0 : - # , , , , < , 2 , - 3 : % 6 C % < & 2 3 2 - - : ",
"- < 2 2 > < , < 2 2 - < < K < < : : 2 2 K : : - < - t.3 - 3 d + , , , 3 < 3 % * 6 % < < < < 2 3 - : ",
", 2 =.2 < 2 < < , < n , 3 0 3 : : a 0.R V # p p , , =.1.1 %.l.&.O O :.s.3 | < 6 6 % < 2 2 2 3 q.< % ",
"3 , 3 - 2 2 < < , - 0.< K < 0 a 6 k %.< 1 2 V a - 1 3 %.;.1 v.l.3 r.:.3 < C % s.< % < p Y , - 3 6 C ",
">.p p % 7 #.z < 2 < 2 7 6 V 7 V c *.8.7 7 9.7 1 * 1 7 ;.%.f.y.y.d.:.:.~ w C i.w < 6 7 :.6.2 - 2 =.r.",
"k k 6 < < :.< # 2 : : a D V < < < 7 8.*.*.i.* 2 d * & y.y.v.v.;.1.@ k s.c 8.k.X * % # 2 &.2 < < ~ k ",
"< a p z 2 c < : : * 2 6 :.: < # * & & * *.9.% * *.& + 9.b.*.f.1 7 p $ + 6 D 6 < w < $ : F u i : V 3 ",
"z < : 6 a < % # $ < < a < # < * < * * * i.7 * p X 2 & y.y.d o 1 7 < * < 2 t.< < % < - ; 0 p i ; : 2 ",
"< < 6 : % # # : # * p p : < # < 6 C 6 % $ i | : # < @ O < &.&.# # 6 a # < # z p : - : ; $ ; 4 $ # 6 ",
"< : * < < < : 7 : % 6 6 a 6 % % * * < < 3 2 i : 6 | 3 : # 1 < # 6 % 6 % 6 c p < $ : < > ; % 4 4 # : ",
"< q 6 6 6 < < C 6 : C < 6 < w A % q C : 2 > i ; : 0 2 < - k < 3 7 % F 7 2 c # < # - 2 6 : : 4 4 a 2 ",
"6 8.D C C C 6 6 % * A 6 < % C 8.$ C | ; : i H 5 @ ; i > 0 ' p 6.6 4 #.7 % 2 < 3 < - i u A w Z F i.6 ",
"# 6 * 6 q C 6 $ % < 6 A 6 * < q < 7 6 : 4 A i i ; 5 a.2 2 < < 0 4 % r 4 ; 2 K 2 < = - 2 q q 4 4 q 4 ",
"$ 6 : 6 6 6 7 8.< 6 6 *.6 < $ % $ < % : < #.> = : W k.: > $ - : % % 4 % > < ( : : < o.R q 4 4 $ $ % ",
"% % % 4 % : q i.6 q < C < % % 6 $ % % % % | w ; > 0 R : % < < : $ * 6 # : < K < - 2 ' i % 4 % 4 % % ",
"* % 6 < 6 6 * : C 6 % 6 % % : 7 8.* 6 * % < ; : u 2 $ < % < % < % q A : : : - $ 0 - : = % 4 4 4 % % ",
"6 * % 4 6 4 % : q 6 2 C * # < -.a % < # < # : 4 W Z ; : 4 4 4 4 q 6 < # # < # < < p # % < < * 4 6 4 ",
"4 6 6 6 4 4 : : i u C 2 < < 2 1 7 * & < < - 4 w 5 q 4 4 4 ; 4 4 q C 8.6 < < 6 7 % < < < 2 < < : 6 6 ",
"4 4 * % : i i > : 4 u : 6 6 a < < < < p 6 2 i q : ; : w q : : : # C C < V < % a 2 < < < % 6 < < % : ",
"4 4 * % 5 w Z i 4 ; : ; 2 C d 6 < : i u z p : : 4 > 5 Z u 4 4 $ 6 # < D 2 < z # < % % 2 < 6 C C : < ",
"* 4 6 2 u 2 H > 4 ; $ 4 6 A 6 6 % : q p A : ; ; ; > 2 2 H H z 2 2 % < | p 6 z < % * : | a 2 c < < < ",
"* 6 i i p ; : 5 > ; ; ; < C 6 6 ; 4 4 ; q > ; > @ ; > ; : 2 k k % w.k : #.p # 6.< 2 % D C 6 a < F | ",
"4 0 i : > - ; 5 > ; 5 ; % 4 : 4 4 5 4 ; 5 ; ; ; ; 5 5 > : : < 2 z k +.p < i ' ' p < ; < < | C D < < ",
"< z 2 > H H i H 5 @ > $ % : 4 F q A 5 4 5 : = ; ; > H H K 0 < 2 | # F < i < R > u i p ; < p.: a a 7 ",
"2 2 - > > H H 5 ; ; ; ; $ : 4 4 % 4 4 4 : $ ; ; = > 2 > 3 - > , 3 X.2 : - H 2 2 2 0 - - : 3 = - 6 a ",
"- - > , > > H i > ; ; = 5 W 4 A 6 $ #.6 $ 4 > = = H H H > - - 2 > - < 2 - > ( 2 z 0 0 2 2 < - < 7 < ",
"- 2 2 < - > i H w . ; : 2 s.#.6 & 7 C 3 s.: ; : = H ( 2 - - : 2 : : 2 2 < - 2 ( H 2 2 2 R 2 2 3 V < ",
", - < 2 2 - 2 H 5 = i > $ z 2 $ < < X 1 > 6 3 i > 2 2 > 2 2 i : - < 2 0 2 - > 3 R < 2 : 0 2 : - a : ",
"2 , - 3 u > i 2 2 Y , < 0 3 O , 1 * d.& V s.~ 2 > > H > w H i = > - 2 X.> 2 2 > 2 2 2 2 > 2 : : 0.a ",
"2 2 - < p < i ; 2 2 - K z k < 3 * 9.b.* x.1.k - 2 > > 2 i H > : 2 2 2 H 2 2 2 3 > > 2 > 2 0 > : 3 < ",
"6 w 2 6 2 > 2 ; > - 3 3 O 3 3 3 %.;.;.&., + 3 - > - > 2 : 5 5 5 2 2 2 > > 2 > 2 2 2 : > 2 K - - < < ",
"* C 7 C < - > : - , 2 2 # z.=.1 1.d.c.y.l., , < - > 2 = ; 5 w i 2 > H 2 2 - > > X.2 : - T X.2 2 u D ",
"q p < p ; : : < , < : < 3 =.2 < 1 &.1 * & r.s.< a 6 < > 6 < 2 : 2 2 2 2 > > ; > < : $ 3 p i < 2 > > ",
"> 5 < 6 ; : < 2 < p < < d =.< 3 &.< 2 a k a 3 < a 6 p > i 2 < : , > 2 2 2 H > > > > : 2 0 i 2 2 : : "
};
