/* XPM */
static char *_2860c76043a45d49730b45c8be89ba79j6OwPalQGmS5wdz[] = {
/* columns rows colors chars-per-pixel */
"50 50 208 2 ",
"   c #2B0000",
".  c #330100",
"X  c #3C0100",
"o  c #3F0A06",
"O  c #440100",
"+  c #4C0200",
"@  c #450902",
"#  c #4D0A01",
"$  c #4C0C0A",
"%  c #520300",
"&  c #5B0500",
"*  c #550A01",
"=  c #5B0D02",
"-  c #550C0A",
";  c #5D0E09",
":  c #4F1200",
">  c #551302",
",  c #5D1402",
"<  c #55110B",
"1  c #5B140C",
"2  c #5B1B0F",
"3  c #571613",
"4  c #5F1611",
"5  c #5C1A1B",
"6  c #630D02",
"7  c #690E00",
"8  c #610F09",
"9  c #631402",
"0  c #6B1503",
"q  c #651902",
"w  c #6D1C03",
"e  c #63140A",
"r  c #691709",
"t  c #641A0B",
"y  c #6B1D0C",
"u  c #731C02",
"i  c #781E06",
"p  c #721E0C",
"a  c #621512",
"s  c #641D13",
"d  c #6B1D12",
"f  c #6C1D19",
"g  c #771F13",
"h  c #5F200E",
"j  c #6C2002",
"k  c #65230D",
"l  c #6D230C",
"z  c #6F280A",
"x  c #742205",
"c  c #792306",
"v  c #752905",
"b  c #74240C",
"n  c #7B240C",
"m  c #74280C",
"M  c #7C2A0C",
"N  c #7F310D",
"B  c #662213",
"V  c #6D2413",
"C  c #6D2B13",
"Z  c #65221A",
"A  c #6D251D",
"S  c #6E2B1B",
"D  c #732414",
"F  c #7B2512",
"G  c #742913",
"H  c #7B2B14",
"J  c #74251B",
"K  c #7B271A",
"L  c #742B1C",
"P  c #7C2C1B",
"I  c #7E3317",
"U  c #77301E",
"Y  c #7C321B",
"T  c #601B20",
"R  c #6F2620",
"E  c #6E2B22",
"W  c #64252D",
"Q  c #712623",
"!  c #792622",
"~  c #742C23",
"^  c #7A2C21",
"/  c #742F28",
"(  c #7D2C28",
")  c #713222",
"_  c #7D3422",
"`  c #7F3822",
"'  c #723328",
"]  c #7D3429",
"[  c #7E3A2A",
"{  c #7E5654",
"}  c #7E5A58",
"|  c #7C5E60",
" . c #822604",
".. c #852C05",
"X. c #8A2C05",
"o. c #84270B",
"O. c #882609",
"+. c #842C0D",
"@. c #8B2D0C",
"#. c #902A04",
"$. c #982E07",
"%. c #912F0C",
"&. c #863304",
"*. c #8B3206",
"=. c #8C3905",
"-. c #85320C",
";. c #8C310D",
":. c #913305",
">. c #92320C",
",. c #963B0F",
"<. c #812513",
"1. c #842D13",
"2. c #8B2E13",
"3. c #83271A",
"4. c #832D1A",
"5. c #8B2E1A",
"6. c #912E12",
"7. c #853214",
"8. c #8C3213",
"9. c #8C3915",
"0. c #84331B",
"q. c #893519",
"w. c #8E351A",
"e. c #89321E",
"r. c #8A361D",
"t. c #8C341A",
"y. c #84381E",
"u. c #85391A",
"i. c #88391B",
"p. c #8C381C",
"a. c #8D3D1C",
"s. c #8C3A1C",
"d. c #923112",
"f. c #913413",
"g. c #953411",
"h. c #913215",
"j. c #923414",
"k. c #9A3612",
"l. c #923915",
"z. c #92331A",
"x. c #92351B",
"c. c #903D1F",
"v. c #933C1C",
"b. c #993D1B",
"n. c #802E20",
"m. c #852F20",
"M. c #852E24",
"N. c #822D23",
"B. c #882E23",
"V. c #822F2A",
"C. c #863625",
"Z. c #833422",
"A. c #8A3520",
"S. c #893521",
"D. c #8B3423",
"F. c #843A23",
"G. c #8A3924",
"H. c #8C3B23",
"J. c #84352A",
"K. c #88342A",
"L. c #8B362E",
"P. c #833C2A",
"I. c #8C3D2B",
"U. c #903623",
"Y. c #913B24",
"T. c #923B22",
"R. c #9A3C22",
"E. c #913A29",
"W. c #933E2B",
"Q. c #8E3C31",
"!. c #8C3D30",
"~. c #8E4117",
"^. c #8C411C",
"/. c #94421D",
"(. c #99431D",
"). c #A3431D",
"_. c #874427",
"`. c #8D4424",
"'. c #8E412A",
"]. c #8F4828",
"[. c #944324",
"{. c #9A4524",
"}. c #914827",
"|. c #984A23",
" X c #94432B",
".X c #9B462B",
"XX c #9C4B2E",
"oX c #8C4333",
"OX c #864239",
"+X c #964433",
"@X c #9A4530",
"#X c #944831",
"$X c #8C4F54",
"%X c #9A4F53",
"&X c #8C5656",
"*X c #8E5856",
"=X c #875659",
"-X c #885659",
";X c #83595A",
":X c #895B5B",
">X c #945455",
",X c #9D5455",
"<X c #92565C",
"1X c #95595D",
"2X c #9D585D",
"3X c #A25454",
"4X c #A15758",
"5X c #A25D58",
/* pixels */
"d.%.6.@.z.6.2.z.2.8.t.i 8.T.-.8.@.j.@.%.X.$.6.5.2.;.:.$.& d Y.1.1.x.%.#.$.k.9.6 u r < OXe.%.%.>.8.2.",
"%.2.8.@.h.2.2.2.t.2.2.n c t.1.8.2.6.2.j.>.>.2.z.7.+.X.d.e f 4.+.7.8.@.:.$.%.1.w e.P < [ 8.@.>.>.@.;.",
"@.@.>.@.8.2.e.5.2.4.e.n o.w.8.4.t.8.2.8.@.8.2.5.p.0.X.t.e A 4.q.-.-.@.*.@.+.u.H.I ].: C a.-.o.;.j.@.",
";.8.@.8.7.1.5.1.4.S.1.& K A.A.A.4.4.e.7.1.e.5.e.H i.t.1.% s 4.0.q.7.q.7.8.p.i.0.i.I h [ p.-.c.4.+.2.",
"q.i.0.r.G.S._ ^ d J d % g ! ! J V.e r n.Q.K.M.J.d K E.K - a ( D F P D.5.4.e.C.S.G 0 e / m.5.H.4.E.5.",
"w w w b b r % * + + + % O % % % % + + % = d 4.y * % r = + + 9 = 0 9 p m b V y 9 % & + + g w % % y * ",
"9.9.i.7.7.m % q I.0.H C.g P A.H.I.S.q.a.w + u 9.i.u.x.8.7.u.q.p.7.9.u.H # + G H.q.;.u.u.c.r.P > O ~ ",
";.9.9.9.a.a.w H.G.G.e.Y.T.c.p.p.p.p.;.9.4.w v.;.9./.b.9./.|.-.l./.~.v.T.V V  Xq.l.(.v.9.j.9.#XV t [ ",
";.@.5.o.z.i 0 R.e.4.t.t.2.8.@.+.1.7.-.-.H j ~.;.N 7.+...9.&.-.;.8.2.X.8.G H c.o.@.%.h.2.@.@.r.D w i.",
";.8.5.2.5.u 7 U.4.2.2.@.@.;.j.d.7.7.8.2.4.n b.o.q.7.w.j.&...;.+.@.8.6.8.m H [.@.h.O.z.@.h.8.1.n b r.",
"8.8.+.w.t.w 0  Xq.u.7.q.9.-...+.8.e.z.t.n.F b.X.2.4.t.z.@.>.z.d.;.>.*.z.G V T.2.@.j. .k.@.8.Y.F p S.",
"r.p.H i.G , = G F.Y H H 7.7.9.9.H n <.4.J 9 4.T.C.L.4.<.w.z.F n v.7. .q.V e e.0.0.r.w.n t.1.C.F r ( ",
"y b 9 e * + O # V L D > 9 b H 9 + @ + * @ X * y R Z B t D l * # l 9 * 9 : X t l S L V > D * O O + 1 ",
"4.0.0.0._ _ _ [ B O * P Z.w x F.U U _ Z.' ) F.Y - O s Y y.Y Z._ [ 0.7.u.) S _ U O X O _ Z._ _ F.L ] ",
"k.f.(.v.c.[.Y.H.G.0 u.p.p.q.b.{./.{.R.T.F._.b.9.P r H.[.b.8.b.p.b.b.).(.'.'.c.8.D # C.I.H.R.R.x./.c.",
"*...g.@.@.7.7.1.7.w T.w.7.@.@.8.@.@.%.@.+...@.;.4.n T.o.@.X.d.X.8.X.$.@.1.7.1.8.b Y H.+.2.5.@.%.;.@.",
"*.;.;.7.;.7.7.7.7.u c.2.5.8.h.@.>.@.6.h.6.6.2.8.7.0 K 0.4.h.@.%.8.;.@.;.8.t.8.q.b l F.7.-.8.>.%.8.;.",
"8.;.;.1.7.7.7.2.M 6 T.t.+.8.1.6.2.2.2.2.2.5.t.4.H = d ^ ^ e.g.@.1.2.8.2.+.o.4.4.D + L Z.4.4.@.@.@.2.",
"w.t.z.5.e.S.K.K.F & 4.W.4.8.5.9.e.p.U.e.2.F 4.G.Y * 1 ~ D K e.8.B.B.D.c.e.e.4.p V.; ( L.M.U.z.8.8.w.",
"o.n <.F F F F D % % = K 1.G H b G F K 3.p 9 q L t X O s t * 9 n & % 6 q F 4.F 9 O % % = g K H H c c ",
"n M M M M v M M 0.H * * + O + # % % % & % % % # # E Z O # J Y b -.v N I I H Y m M u.v v 0., O = M M ",
"{.{.{./.v.[.(.|.p.H.Y D L S 4 ~ L F K K K 4.K G U OX] 1 ^ I.`.[.|.^.].].i._.`.}.^.9.~.^.`.Y , Z.[.a.",
"@.;.@.@.X.X.@.8...1.i.0.F.F.D #Xi.e.e.U.D.5.7.9.H Y Z.y I.H.M +.;.;.-.7.I u.7.7.q...8.@.-.i.t '.4.@.",
">.%.d.>.6.%.@.2.w.2.4.u.0.m m F.0.e.e.2.5.e.t.1.u.0.H.p H.p.7.9.8.7.7.N u.u.q.4.8.;.2.2.q.0.y '.8.;.",
"@.8.;.X.6.6.o.h.t.1.q.G p.q C F.Y Z.J.P K 4.F.H I 0.P.y ^ F.Y I 8.q.7.u.I M q.8.8.@.5.8.4.S.e P 8.;.",
"8.j.v.@.2.9.@.e.7.0.i.Z._ L Z [ [ ~ L L ] ] F.Y P.` ~ 2 ~ ] ` F.u.0.i.S.F.0.Y i.4.8.w.A.0.D * , 0.7.",
"P F H P 4.H H Y P U ~ Z < 3 O 5 Z 2 - 1 / ~ S k C B # O 3 E ' ) Y z L L / A t D P P H G t O X $ J L ",
"D G D q 9 m l # + , L B E R R E S k @ O s L U z l V V S Z @ @ k C m m V L V t D l q O = t A A ~ e r ",
"v.b.[.7.7.T.c.w w p.}.a.|.a.^.~.c.^.l 0 G.p.[.l.(./..X@X X9 q H.`.XX[.|.|./.b.[.[.0.= 0.I..X Xa.9.i.",
";...@.l.8.7.8.M +.[.+.&.&.&.=.&.-.;.c 1.{.7.;.X.>.>.2.o.e.H 7.a.+.c.8.;.*.......1.0.w W.8.9.8.l.j.8.",
"@.9.h.8.1.8.w.x n v.+.9.8.f.@.;.;.7.x +.T.o.;.*.*.X.8.t.H.w q 7.+.;.>.>.$.%.>.8.8.7.0 c.8.2.@.@.;.2.",
"6.6.2.8.2.8.8.n +.p.5.2.8.8.@.j.-.9.n G w.1.9.;.>.@.8.2.8.H y F.q.@.;.*.#.%.@.d.7.1.u v.8.@.%.>.@.8.",
"6.2.8.1.2.z.4.H u 0.U.1.c 9.8.@.>.@.G y 0.+.8.;.*.*.8.@.2.1.O r b +.j.X.@.%.g.2.1.e.0 p.7.;.>.@.h.6.",
"z.5.a.1.1.4.G.b D 0.m.D.H q 7.8.8.r.P V P P 4.0.7.1.M q.z.F # ~ H.A.2.t.x.5.5.1.G.F & y 1.7.8.@.1.e.",
"P b G _ Y ^ L + X A ] ~ F.> + y H V + X O - < Q _ e % J J + X W Q ] ! ( V.! f a R - + - f J m 9 e f ",
"G G q y O @ t L S 1 O O t U C l b P A / J R O O d 0.J A Q / T O $ + % + % % % % % + f R ~ V P J a O ",
"b.[.n 9.7.q.q.G.G.7.= 0.S.i. X/./.(.{.[.`.i.k w /.l.a..X.X XY J f + g P 1.n n F F F Y. XW.Y.W.Q.J., ",
" .f.;.@./.9.9.1.e.e.u  XT.2.M -.*.:.;.&.-.7.m u.,.X.X.-.@.1.+.e.L.r 0.U.8.2.x.j.z.+.@.8.+.8.2.1.Z.t ",
"+.8.g...-.-.9.t.8.b m T.o.z.9.+.@.*.;.*.@.0.l H >.:.>.;.;.8.8.8.7.n n T.2.2.@.@.X.2.h.8.;. .;.9.J.a ",
"9.+.8.d.7.7.7.1.4.w.u t.U.+.z.+.8.h.@.5.8.H.V P f.:.@.8.8.1.d.8.i.m % H 5.e.2.d.d.%.2.@.9.;.8.2.d O ",
"8.8.d.8.-.u.q.8.x.n 6 n 5.z.t.e.4.5.5.3.<.N.J V h.d.8.4.5.t.z.2.J a y C.e.4.t.5.5.h.5.d.t.2.3.B.J.e ",
"P 1.4.4.0.H n n 7 & % * 0 <.1.0.4.L.N.6 6 8 % + <.o.1.7.1.o.u 0 + O * P 4.4.4.n 2.+.+.+.n 6 & e r # ",
"t t , + , l H L D d s % % = % * ; # % + % + 1 s w x z l m m u w l k B > X , b b w x n b x j w z G k ",
"[ J.L * _ I.oXG.Q.!.!.J g d D d t + < ^ J d ] oX X[.H.H.G.b.[.[.`._.F.k > _._.`.}.[./.a.H.}.`.^.`.`.",
"C.e.H w W.8.1.4.4.e.5.5.e.4.p.e.Z.P t n.e.e.H e.c.9.8.1.2.@.8.2.H.0.i.0.H `.I 7.T.8.+.;.;.@.1.1.8.q.",
"5.5.7.n b.@.+.9.8.2.2.5.z.+.8.2.T.F.V Z.1.t.8.8.@.+.@.8.%.$.2.t.<.<.H G G G.1.q.2.X.*.>.;.8.z.e.2.d.",
"1.0.0.x x.8.8.+.8.8.2.6.4.2.h.8.7.G l I.5.@.8.X.d.8.7.2.6.%.5.5.e.q.n 6 l  X0.1.7.@.j.d.X.@.8.o.2.@.",
"!.F.S l Y.c.H.H.A.H.v.e.G H.S.H.I.) > S Y.x.e.T.p.A.A.H.x.x.U.L.H.I.P > S [ J.'.G.P 4.Y.U.D.Y.Y.U.U.",
"$ X     * e ; ; , e 8 e < O # - $ .   o 4 8 = e 8 8 8 8 8 8 8 ; $ O X   . o $ < + # @ * ; e 8 e ; ; ",
"-X;X| } <X3X,X,X,X3X3X5X<X&X>X1X1X-X{ :X2X,X%X2X3X3X3X3X3X3X3X%X<X=X;X} ;X:X1X<X&X*X>X>X,X,X3X3X%X,X"
};
