/* XPM */
static char *bba11be7e12d4998cdc246e2f8ad3045yhFdrMijzQ7uPESI[] = {
/* columns rows colors chars-per-pixel */
"50 50 14 1 ",
"  c None",
". c black",
"X c gray13",
"o c #33691E",
"O c gray26",
"+ c #6D4C41",
"@ c #DD2C00",
"# c #C62828",
"$ c #8D6E63",
"% c #A1887F",
"& c #F06292",
"* c #00BFA5",
"= c #1DE9B6",
"- c #FFAB91",
/* pixels */
"                                                  ",
"                                                  ",
"                            X.                    ",
"                         XXX.                     ",
"                       XX...                      ",
"                      XX...                       ",
"                    XXX...                        ",
"                    XXX....                       ",
"                  XX.XX.....                      ",
"             X  XXXXXX.X....   .                  ",
"              XXXX..XXXX.X.....                   ",
"               XXXX...XXXXX...                    ",
"                 XXXXXXXX..                       ",
"                 X======XX..                      ",
"                 X=.===.=X...                     ",
"                 X=.===.=X.... .                  ",
"                 X-=====-XX.X...                  ",
"                 X=======*XX.X                    ",
"                  X=====**XX .X                   ",
"                   XX==**XXXXXX                   ",
"                     *** XXX                      ",
"                   XX.*X. XXXXX                   ",
"                  XX.XXX..                        ",
"   @ @            X.OXXX..                        ",
"  @@@@@           X.OXXX..                        ",
"  @o@o@          X..OXXXX.                      $ ",
"  @@&@@          X. OXXX..                   +++  ",
"   @@@          ... OXXXX.                 +++$$$ ",
"  @@@@@        ...  OXXX...          +$$$$$$$$  $$",
"  @@@@@@@     =..   OXXXXX..     ++ +$+++++++$$$  ",
"  @@@@@ @    ====    OOXX.X...   $$#$+$$$$$$$$ $$$",
" %%%%%%@@%%%%%%%%%%%%%OXXX..X..%%%%#+$+++++++$$ $$",
"      @@              OXXXXX...  $$#$+$$$$$$$$   $",
"      @               OXXXXX.X.  ++ +$++++++++$$$ ",
"                      =XXX XX..     $+$$$$$$$$$ + ",
"                      =XXXXXXX.      $++++++++++ +",
"                      =XXXXXX..       $$$$$$$$$$  ",
"                    X==X XXXXX.         $$  $  $$$",
"                    X==X X=X .            $  $    ",
"                    XX   XXX .                    ",
"                    XX       .                    ",
"                                                  ",
"                                                  ",
"                                                  ",
"                                                  ",
"                                                  ",
"                                                  ",
"                                                  ",
"                                                  ",
"                                                  "
};
