/* XPM */
static char *_de54824b92747aafe8f9163d732bc6fGzBRUi9G3mP87urB[] = {
/* columns rows colors chars-per-pixel */
"50 50 14 1 ",
"  c None",
". c black",
"X c gray13",
"o c #33691E",
"O c gray26",
"+ c #6D4C41",
"@ c #DD2C00",
"# c #C62828",
"$ c #8D6E63",
"% c #A1887F",
"& c #F06292",
"* c #00BFA5",
"= c #1DE9B6",
"- c #FFAB91",
/* pixels */
"                                                  ",
"                                                  ",
"                                                  ",
"                                                  ",
"                                                  ",
"                    .X                            ",
"                     .XXX                         ",
"                      ...XX                       ",
"                       ...XX                      ",
"                        ...XXX                    ",
"                       ....XXX                    ",
"                      .....XX.XX                  ",
"                  .   ....X.XXXXXX  X             ",
"                   .....X.XXXX..XXXX              ",
"                    ...XXXXX...XXXX               ",
"                       ..XXXXXXXX                 ",
"                      ..XX======X                 ",
"                     ...X=.===.=X                 ",
"                  . ....X=.===.=X                 ",
"                  ...X.XX-=====-X                 ",
"                    X.XX*=======X                 ",
"                   X. XX**=====X                  ",
"                   XXXXXX**==XX                   ",
"                      XXX ***                     ",
"                   XXXXX .X*.XX                   ",
"                        ..XXX.XX                  ",
"                        ..XXXO.X            @ @   ",
"                        ..XXXO.X           @@@@@  ",
" $                      .XXXXO..X          @o@o@  ",
"  +++                   ..XXXO .X          @@&@@  ",
" $$$+++                 .XXXXO ...          @@@   ",
"$$  $$$$$$$$+          ...XXXO  ...        @@@@@  ",
"  $$$+++++++$+ ++     ..XXXXXO   ..=     @@@@@@@  ",
"$$$ $$$$$$$$+$#$$   ...X.XXOO    ====    @ @@@@@  ",
"$$ $$+++++++$+#%%%%..X..XXXO%%%%%%%%%%%%%@@%%%%%% ",
"$   $$$$$$$$+$#$$  ...XXXXXO              @@      ",
" $$$++++++++$+ ++  .X.XXXXXO               @      ",
" + $$$$$$$$$+$     ..XX XXX=                      ",
"+ ++++++++++$      .XXXXXXX=                      ",
"  $$$$$$$$$$       ..XXXXXX=                      ",
"$$$  $  $$         .XXXXX X==X                    ",
"    $  $            . X=X X==X                    ",
"                    . XXX   XX                    ",
"                    .       XX                    ",
"                                                  ",
"                                                  ",
"                                                  ",
"                                                  ",
"                                                  ",
"                                                  "
};
